<svg width="29" height="29" viewBox="0 0 29 29" fill="none" xmlns="http://www.w3.org/2000/svg">
<g clip-path="url(#clip0_1_1468)">
<g clip-path="url(#clip1_1_1468)">
<path d="M20.4817 7.69531C19.718 7.69531 19.2089 8.33168 19.2089 8.96804C19.2089 9.73168 19.8453 10.2408 20.4817 10.2408C21.2453 10.2408 21.7544 9.6044 21.7544 8.96804C21.7544 8.33168 21.118 7.69531 20.4817 7.69531Z" fill="white"/>
<path d="M14.627 9.47656C11.5725 9.47656 9.1543 11.8947 9.1543 14.9493C9.1543 18.0038 11.5725 20.422 14.627 20.422C17.6816 20.422 20.0998 18.0038 20.0998 14.9493C20.0998 11.8947 17.6816 9.47656 14.627 9.47656ZM14.627 18.5129C12.7179 18.5129 11.0634 16.9857 11.0634 14.9493C11.0634 12.9129 12.5907 11.3857 14.627 11.3857C16.5361 11.3857 18.1907 12.9129 18.1907 14.9493C18.1907 16.9857 16.5361 18.5129 14.627 18.5129Z" fill="white"/>
<path d="M18.9544 26.15H10.0453C6.35435 26.15 3.2998 23.0955 3.2998 19.4045V10.4955C3.2998 6.80455 6.35435 3.75 10.0453 3.75H18.9544C22.6453 3.75 25.6998 6.80455 25.6998 10.4955V19.4045C25.6998 23.0955 22.6453 26.15 18.9544 26.15ZM10.0453 5.78636C7.4998 5.78636 5.46344 7.82273 5.46344 10.3682V19.2773C5.46344 21.8227 7.4998 23.8591 10.0453 23.8591H18.9544C21.4998 23.8591 23.5362 21.8227 23.5362 19.2773V10.3682C23.5362 7.82273 21.4998 5.78636 18.9544 5.78636H10.0453Z" fill="white"/>
</g>
</g>
<defs>
<clipPath id="clip0_1_1468">
<rect width="28" height="28" fill="white" transform="translate(0.5 0.949219)"/>
</clipPath>
<clipPath id="clip1_1_1468">
<rect width="28" height="28" fill="white" transform="translate(0.5 0.949219)"/>
</clipPath>
</defs>
</svg>
