<svg width="100" height="39" viewBox="0 0 100 39" fill="none" xmlns="http://www.w3.org/2000/svg">
<g clip-path="url(#clip0_177_781)">
<path d="M95.3383 37.3638H95.872V37.8962H95.3383V37.3638ZM93.4946 37.9414C93.3052 37.9414 93.1436 37.8999 93.0099 37.8184C92.8762 37.7359 92.7746 37.6161 92.7046 37.4584C92.6346 37.3012 92.5999 37.112 92.5999 36.8907V36.3215C92.5999 36.0992 92.6341 35.9089 92.702 35.7518C92.7699 35.5941 92.8694 35.4742 92.9999 35.3917C93.1299 35.3102 93.2867 35.2687 93.4694 35.2687C93.6225 35.2687 93.7625 35.3087 93.8894 35.3886C94.0162 35.4685 94.1188 35.5799 94.1973 35.7244L94.1446 36.2516C94.1446 36.1428 94.1252 36.0487 94.0852 35.9704C94.0452 35.8931 93.9873 35.8338 93.9115 35.7928C93.8367 35.7518 93.7452 35.7318 93.6367 35.7318C93.4683 35.7318 93.3388 35.7843 93.2462 35.8889C93.1541 35.9935 93.1083 36.1407 93.1083 36.3289V36.8913C93.1083 37.0789 93.1541 37.2235 93.2462 37.3265C93.3388 37.4284 93.4683 37.4794 93.6367 37.4794C93.7446 37.4794 93.8362 37.4584 93.9115 37.4153C93.9873 37.3727 94.0452 37.3118 94.0852 37.2329C94.1252 37.153 94.1446 37.0579 94.1446 36.9465L94.1794 37.491C94.1283 37.6192 94.0441 37.7265 93.9267 37.8121C93.8094 37.8983 93.6657 37.9414 93.4946 37.9414ZM94.1446 34.278H94.6536V37.8968H94.1446V34.278ZM90.8104 35.3134H91.9767V35.7712H90.8104V35.3134ZM91.6831 37.9094C91.4736 37.9094 91.3209 37.8516 91.2231 37.7359C91.1262 37.6203 91.0778 37.4505 91.0778 37.2245V34.5618H91.5867V37.2298C91.5867 37.2928 91.5988 37.3412 91.6231 37.3748C91.6483 37.409 91.6852 37.4258 91.7325 37.4258H91.9767V37.9094H91.6831ZM88.3888 37.4137H90.4625V37.8962H88.3888V37.4137ZM88.1346 34.278H88.6431V37.8968H88.1346V34.278ZM84.983 37.9341C84.8299 37.9341 84.6873 37.9188 84.5536 37.8889C84.4188 37.8589 84.2941 37.8142 84.1783 37.7548C84.062 37.6954 83.9546 37.6203 83.8567 37.5304L84.1578 37.1604C84.2973 37.2666 84.4357 37.3464 84.5746 37.399C84.7125 37.4526 84.8488 37.4789 84.983 37.4789C85.1836 37.4789 85.3352 37.4474 85.4357 37.3853C85.5362 37.3233 85.5862 37.2298 85.5862 37.1052C85.5862 37.0227 85.5588 36.9601 85.5036 36.9191C85.4494 36.8776 85.3809 36.8492 85.2994 36.835C85.2178 36.8214 85.1036 36.8088 84.9557 36.7967C84.942 36.7967 84.9283 36.7967 84.9131 36.7956C84.8978 36.7946 84.8841 36.793 84.8704 36.7914C84.8636 36.7914 84.8578 36.7914 84.8509 36.7904C84.8441 36.7893 84.8373 36.7888 84.8304 36.7888C84.6631 36.7762 84.5204 36.7515 84.4041 36.7157C84.2883 36.68 84.1915 36.6127 84.1141 36.5155C84.0367 36.4177 83.9983 36.2779 83.9983 36.095C83.9983 35.9121 84.0357 35.7602 84.1104 35.6398C84.1846 35.5184 84.2957 35.4275 84.4441 35.367C84.592 35.3071 84.7773 35.2761 85.0004 35.2761C85.1346 35.2761 85.2631 35.2887 85.3852 35.3134C85.5073 35.3381 85.6241 35.3754 85.7357 35.4238C85.8473 35.4727 85.9541 35.5352 86.0573 35.6098L85.7504 35.9804C85.6209 35.8968 85.4936 35.8353 85.3683 35.7938C85.2425 35.7533 85.1199 35.7318 85.0009 35.7318C84.8273 35.7318 84.6978 35.7617 84.6115 35.8201C84.5257 35.879 84.482 35.9673 84.482 36.085C84.482 36.1544 84.5067 36.2075 84.5562 36.2421C84.6046 36.2768 84.6667 36.3 84.7415 36.3121C84.8162 36.3231 84.9225 36.3331 85.0604 36.342C85.0709 36.3436 85.0809 36.3446 85.0909 36.3446C85.102 36.3446 85.1131 36.3457 85.1252 36.3473C85.1299 36.3473 85.1352 36.3473 85.1404 36.3473C85.1446 36.3473 85.1499 36.3483 85.1546 36.3499C85.3357 36.3609 85.4899 36.3856 85.6173 36.4219C85.7441 36.4587 85.8509 36.5307 85.9367 36.6385C86.0236 36.7462 86.0662 36.9018 86.0662 37.1057C86.0662 37.2918 86.0273 37.4453 85.9467 37.5677C85.8667 37.6891 85.7473 37.7811 85.5862 37.8431C85.4273 37.9036 85.2257 37.9341 84.983 37.9341ZM82.3915 37.9341C82.1525 37.9341 81.9478 37.8889 81.7783 37.8C81.6088 37.7102 81.4799 37.5782 81.3909 37.4053C81.302 37.2319 81.2573 37.0232 81.2573 36.7777V36.4866C81.2573 36.2311 81.2999 36.0125 81.3857 35.8316C81.4709 35.6508 81.5952 35.5131 81.7583 35.419C81.9209 35.325 82.1178 35.2771 82.3462 35.2771C82.562 35.2771 82.7467 35.3313 82.8999 35.4385C83.052 35.5462 83.1688 35.7024 83.2494 35.9063C83.3304 36.1102 83.3704 36.3557 83.3704 36.6411V36.8103H81.6267V36.4019H82.8873C82.872 36.1912 82.8178 36.0272 82.7241 35.911C82.6304 35.7938 82.5046 35.7349 82.3462 35.7349C82.1541 35.7349 82.0041 35.7975 81.8988 35.9242C81.7936 36.0498 81.7404 36.228 81.7404 36.4592V36.7872C81.7404 37.0011 81.7973 37.1662 81.9099 37.2797C82.0231 37.3943 82.1836 37.4521 82.3915 37.4521C82.4941 37.4521 82.5967 37.4305 82.6978 37.3895C82.7988 37.3485 82.8899 37.2902 82.9699 37.215L83.3031 37.5488C83.1757 37.6713 83.032 37.7664 82.872 37.8332C82.7131 37.8999 82.552 37.9341 82.3915 37.9341ZM79.8341 37.9341C79.5988 37.9341 79.3967 37.8899 79.2304 37.8027C79.0636 37.7144 78.9362 37.5866 78.8478 37.4185C78.7604 37.2513 78.7162 37.049 78.7162 36.8119V36.3867C78.7162 36.1523 78.7604 35.9525 78.8478 35.787C78.9362 35.6204 79.0641 35.4937 79.2304 35.4075C79.3973 35.3197 79.5988 35.2766 79.8341 35.2766C79.9694 35.2766 80.0952 35.2929 80.2141 35.325C80.3336 35.357 80.4399 35.4038 80.5346 35.4658C80.6288 35.5273 80.7083 35.602 80.7709 35.6892L80.4041 36.0182C80.3309 35.9347 80.2462 35.8711 80.1473 35.8264C80.0494 35.7822 79.9473 35.7591 79.8409 35.7591C79.6452 35.7591 79.493 35.8143 79.3852 35.9242C79.2773 36.0335 79.2236 36.1875 79.2236 36.3872V36.8124C79.2236 37.0164 79.2773 37.1735 79.3846 37.2844C79.4909 37.3959 79.6441 37.4516 79.8415 37.4516C79.9494 37.4516 80.0525 37.4269 80.1504 37.3796C80.2494 37.3312 80.3336 37.2634 80.4046 37.1746L80.7715 37.5278C80.7067 37.6145 80.6267 37.6876 80.5325 37.7485C80.4373 37.809 80.3309 37.8547 80.212 37.8862C80.0936 37.9178 79.9678 37.9341 79.8341 37.9341ZM77.5099 35.3134H78.0178V37.8968H77.5099V35.3134ZM77.5099 34.278H78.0178V34.7857H77.5099V34.278ZM76.4804 35.3134H77.0115L76.0394 37.8968H75.6557L74.6841 35.3134H75.2152L75.8478 37.1578L76.4804 35.3134ZM74.2025 35.9257C74.1573 35.8705 74.1004 35.829 74.0325 35.8012C73.9646 35.7728 73.8862 35.7586 73.7962 35.7586C73.6352 35.7586 73.5104 35.8038 73.4209 35.8921C73.3325 35.9809 73.2873 36.1044 73.2873 36.2616L73.2352 35.7638C73.3152 35.6098 73.4183 35.4895 73.5441 35.4043C73.6709 35.3187 73.8104 35.2761 73.9625 35.2761C74.0809 35.2761 74.1878 35.2929 74.2831 35.3271C74.3783 35.3612 74.4615 35.4112 74.5331 35.4774L74.2025 35.9257ZM72.7794 35.3134H73.2873V37.8968H72.7794V35.3134ZM71.102 37.9341C70.863 37.9341 70.6583 37.8889 70.4888 37.8C70.3194 37.7102 70.1904 37.5782 70.1015 37.4053C70.0125 37.2319 69.9678 37.0232 69.9678 36.7777V36.4866C69.9678 36.2311 70.0104 36.0125 70.0962 35.8316C70.1815 35.6508 70.3057 35.5131 70.4688 35.419C70.6315 35.325 70.8278 35.2771 71.0567 35.2771C71.2731 35.2771 71.4573 35.3313 71.6104 35.4385C71.7625 35.5462 71.8794 35.7024 71.9599 35.9063C72.0409 36.1102 72.0809 36.3557 72.0809 36.6411V36.8103H70.3373V36.4019H71.5978C71.5825 36.1912 71.5283 36.0272 71.4346 35.911C71.3409 35.7938 71.2152 35.7349 71.0567 35.7349C70.8646 35.7349 70.7152 35.7975 70.6094 35.9242C70.5041 36.0498 70.4515 36.228 70.4515 36.4592V36.7872C70.4515 37.0011 70.5083 37.1662 70.6209 37.2797C70.7341 37.3943 70.8946 37.4521 71.102 37.4521C71.2046 37.4521 71.3073 37.4305 71.4083 37.3895C71.5094 37.3485 71.6004 37.2902 71.6804 37.215L72.0136 37.5488C71.8862 37.6713 71.7425 37.7664 71.5825 37.8332C71.4236 37.8999 71.263 37.9341 71.102 37.9341ZM68.0399 37.9341C67.8657 37.9341 67.6999 37.9173 67.5441 37.8841C67.3878 37.851 67.242 37.8016 67.1062 37.7354C66.9709 37.6681 66.8441 37.5861 66.7267 37.4868L67.043 37.0984C67.1809 37.2177 67.3331 37.3076 67.4988 37.3669C67.6646 37.4263 67.8452 37.4563 68.0399 37.4563C68.302 37.4563 68.5052 37.4079 68.6499 37.3112C68.7941 37.2145 68.8667 37.0768 68.8667 36.8992V36.8965C68.8667 36.7709 68.8346 36.6705 68.7688 36.5969C68.7025 36.5228 68.6183 36.4687 68.5146 36.4329C68.4109 36.3972 68.2762 36.3641 68.1125 36.3341C68.1073 36.3326 68.1015 36.3315 68.0962 36.3315C68.0899 36.3315 68.0841 36.3304 68.0794 36.3289L68.0425 36.322C67.7994 36.2805 67.602 36.2332 67.4504 36.1812C67.2983 36.1286 67.1678 36.0335 67.0599 35.8947C66.952 35.7565 66.8983 35.5594 66.8983 35.3034V35.3008C66.8983 35.0774 66.9483 34.8861 67.0488 34.7274C67.1494 34.5697 67.2962 34.4477 67.4888 34.3657C67.682 34.2827 67.9131 34.2412 68.1846 34.2412C68.3141 34.2412 68.4415 34.2554 68.5667 34.2837C68.6925 34.3116 68.8157 34.3542 68.9383 34.4094C69.0599 34.4645 69.1799 34.535 69.2983 34.6201L69.0088 35.0227C68.8709 34.9218 68.7341 34.8461 68.5962 34.7952C68.4594 34.7452 68.322 34.7195 68.1846 34.7195C67.9373 34.7195 67.7441 34.7689 67.6073 34.8672C67.4704 34.966 67.4025 35.1058 67.4025 35.2871V35.2897C67.4025 35.4138 67.4373 35.5116 67.5078 35.5825C67.5783 35.654 67.6667 35.7066 67.7725 35.7407C67.8778 35.7744 68.0241 35.8101 68.2125 35.8469C68.2194 35.8485 68.2252 35.8495 68.2309 35.85C68.2367 35.8511 68.2431 35.8527 68.2499 35.8543C68.2583 35.8558 68.2667 35.8574 68.2767 35.859C68.2867 35.86 68.2957 35.8616 68.3041 35.8632C68.5236 35.9084 68.7062 35.962 68.8536 36.023C69.0004 36.0839 69.1241 36.1833 69.2225 36.3199C69.3215 36.4566 69.3704 36.6437 69.3704 36.8813V36.8855C69.3704 37.1062 69.3183 37.2949 69.2136 37.4521C69.1083 37.6092 68.9567 37.728 68.7583 37.8106C68.5594 37.8931 68.3204 37.9341 68.0399 37.9341ZM63.5994 37.9414C63.4099 37.9414 63.2483 37.8999 63.1146 37.8184C62.9809 37.7359 62.8794 37.6161 62.8094 37.4584C62.7394 37.3012 62.7046 37.112 62.7046 36.8907V36.3215C62.7046 36.0992 62.7383 35.9089 62.8067 35.7518C62.8746 35.5941 62.9741 35.4742 63.1046 35.3917C63.2346 35.3102 63.3915 35.2687 63.5741 35.2687C63.7273 35.2687 63.8673 35.3087 63.9941 35.3886C64.1209 35.4685 64.2236 35.5799 64.302 35.7244L64.2494 36.2516C64.2494 36.1428 64.2299 36.0487 64.1899 35.9704C64.1499 35.8931 64.092 35.8338 64.0162 35.7928C63.9415 35.7518 63.8494 35.7318 63.7415 35.7318C63.573 35.7318 63.4436 35.7843 63.3509 35.8889C63.2588 35.9935 63.213 36.1407 63.213 36.3289V36.8913C63.213 37.0789 63.2588 37.2235 63.3509 37.3265C63.4436 37.4284 63.573 37.4794 63.7415 37.4794C63.8494 37.4794 63.9409 37.4584 64.0162 37.4153C64.092 37.3727 64.1499 37.3118 64.1899 37.2329C64.2299 37.153 64.2494 37.0579 64.2494 36.9465L64.2841 37.491C64.2331 37.6192 64.1488 37.7265 64.0315 37.8121C63.9146 37.8983 63.7704 37.9414 63.5994 37.9414ZM63.6462 38.9464C63.4525 38.9464 63.2778 38.9107 63.1246 38.8386C62.9709 38.7666 62.8515 38.6647 62.7667 38.5338L63.1104 38.2226C63.1773 38.3136 63.2567 38.384 63.3488 38.4345C63.4415 38.4839 63.5378 38.5091 63.6388 38.5091C63.8336 38.5091 63.9841 38.4555 64.0904 38.3488C64.1967 38.2416 64.2494 38.0902 64.2494 37.8941V35.3134H64.7583V37.8195C64.7583 38.0565 64.7152 38.2605 64.6273 38.4292C64.5404 38.5984 64.4141 38.7272 64.2473 38.815C64.0815 38.9033 63.8815 38.9464 63.6462 38.9464ZM61.4988 36.331C61.4988 36.1481 61.4515 36.0072 61.3562 35.9079C61.262 35.8085 61.1288 35.7581 60.9583 35.7581C60.792 35.7581 60.6641 35.8022 60.5731 35.8905C60.4831 35.9778 60.4373 36.1018 60.4373 36.2611L60.3852 35.7633C60.4652 35.6077 60.5688 35.4874 60.6978 35.4022C60.8262 35.3181 60.9683 35.2756 61.1252 35.2756C61.4057 35.2756 61.6225 35.3675 61.7767 35.5504C61.9309 35.7339 62.0073 35.993 62.0073 36.3278V37.8957H61.4994V36.331H61.4988ZM59.9288 35.3134H60.4367V37.8968H59.9288V35.3134ZM58.6478 35.3134H59.1557V37.8968H58.6478V35.3134ZM58.6478 34.278H59.1557V34.7857H58.6478V34.278ZM56.9157 37.9341C56.7625 37.9341 56.6194 37.9188 56.4862 37.8889C56.352 37.8589 56.2267 37.8142 56.1109 37.7548C55.9946 37.6954 55.8873 37.6203 55.7894 37.5304L56.0904 37.1604C56.2299 37.2666 56.3683 37.3464 56.5073 37.399C56.6452 37.4526 56.7815 37.4789 56.9157 37.4789C57.1162 37.4789 57.2678 37.4474 57.3683 37.3853C57.4688 37.3233 57.5188 37.2298 57.5188 37.1052C57.5188 37.0227 57.4915 36.9601 57.4362 36.9191C57.382 36.8776 57.3136 36.8492 57.232 36.835C57.1504 36.8214 57.0367 36.8088 56.8883 36.7967C56.8746 36.7967 56.8609 36.7967 56.8457 36.7956C56.8304 36.7946 56.8167 36.793 56.8031 36.7914C56.7962 36.7914 56.7904 36.7914 56.7836 36.7904C56.7767 36.7893 56.7699 36.7888 56.7631 36.7888C56.5957 36.7762 56.4531 36.7515 56.3367 36.7157C56.2209 36.68 56.1241 36.6127 56.0467 36.5155C55.9694 36.4177 55.9309 36.2779 55.9309 36.095C55.9309 35.9121 55.9683 35.7602 56.043 35.6398C56.1173 35.5184 56.2283 35.4275 56.3767 35.367C56.5246 35.3071 56.7099 35.2761 56.9331 35.2761C57.0673 35.2761 57.1957 35.2887 57.3178 35.3134C57.4399 35.3381 57.5567 35.3754 57.6683 35.4238C57.7799 35.4727 57.8867 35.5352 57.9899 35.6098L57.6825 35.9804C57.5531 35.8968 57.4257 35.8353 57.3004 35.7938C57.1746 35.7533 57.052 35.7318 56.9331 35.7318C56.7594 35.7318 56.6299 35.7617 56.543 35.8201C56.4573 35.879 56.4136 35.9673 56.4136 36.085C56.4136 36.1544 56.4383 36.2075 56.4878 36.2421C56.5362 36.2768 56.5983 36.3 56.6731 36.3121C56.7478 36.3231 56.8546 36.3331 56.992 36.342C57.0025 36.3436 57.0125 36.3446 57.0225 36.3446C57.0336 36.3446 57.0446 36.3457 57.0567 36.3473C57.0615 36.3473 57.0667 36.3473 57.072 36.3473C57.0762 36.3473 57.0815 36.3483 57.0867 36.3499C57.2678 36.3609 57.422 36.3856 57.5494 36.4219C57.6762 36.4587 57.7831 36.5307 57.8694 36.6385C57.9562 36.7462 57.9988 36.9018 57.9988 37.1057C57.9988 37.2918 57.9599 37.4453 57.8794 37.5677C57.7994 37.6891 57.6799 37.7811 57.5188 37.8431C57.3599 37.9036 57.1583 37.9341 56.9157 37.9341ZM54.7204 35.3134H55.2283V37.8968H54.7204V35.3134ZM54.7204 34.278H55.2283V34.7857H54.7204V34.278ZM52.8557 35.3134H54.022V35.7712H52.8557V35.3134ZM53.7283 37.9094C53.5188 37.9094 53.3657 37.8516 53.2683 37.7359C53.1715 37.6203 53.123 37.4505 53.123 37.2245V34.5618H53.6315V37.2298C53.6315 37.2928 53.6436 37.3412 53.6683 37.3748C53.6936 37.409 53.7304 37.4258 53.7778 37.4258H54.022V37.9094H53.7283ZM52.3004 35.9257C52.2552 35.8705 52.1983 35.829 52.1304 35.8012C52.0625 35.7728 51.9841 35.7586 51.8941 35.7586C51.7331 35.7586 51.6083 35.8038 51.5188 35.8921C51.4304 35.9809 51.3852 36.1044 51.3852 36.2616L51.333 35.7638C51.413 35.6098 51.5162 35.4895 51.642 35.4043C51.7688 35.3187 51.9083 35.2761 52.0604 35.2761C52.1788 35.2761 52.2857 35.2929 52.3809 35.3271C52.4762 35.3612 52.5594 35.4112 52.6309 35.4774L52.3004 35.9257ZM50.8773 35.3134H51.3852V37.8968H50.8773V35.3134ZM49.1999 37.9341C48.9609 37.9341 48.7562 37.8889 48.5867 37.8C48.4173 37.7102 48.2883 37.5782 48.1994 37.4053C48.1099 37.2319 48.0657 37.0232 48.0657 36.7777V36.4866C48.0657 36.2311 48.1083 36.0125 48.1941 35.8316C48.2794 35.6508 48.4036 35.5131 48.5667 35.419C48.7294 35.325 48.9257 35.2771 49.1546 35.2771C49.3704 35.2771 49.5552 35.3313 49.7083 35.4385C49.8604 35.5462 49.9773 35.7024 50.0578 35.9063C50.1388 36.1102 50.1788 36.3557 50.1788 36.6411V36.8103H48.4352V36.4019H49.6957C49.6804 36.1912 49.6262 36.0272 49.5325 35.911C49.4388 35.7938 49.3131 35.7349 49.1546 35.7349C48.9625 35.7349 48.8125 35.7975 48.7073 35.9242C48.602 36.0498 48.5494 36.228 48.5494 36.4592V36.7872C48.5494 37.0011 48.6062 37.1662 48.7188 37.2797C48.832 37.3943 48.9925 37.4521 49.2004 37.4521C49.3031 37.4521 49.4057 37.4305 49.5067 37.3895C49.6078 37.3485 49.6988 37.2902 49.7788 37.215L50.112 37.5488C49.9846 37.6713 49.8409 37.7664 49.6809 37.8332C49.5215 37.8999 49.3609 37.9341 49.1999 37.9341ZM47.162 35.3134H47.6931L46.7209 37.8968H46.3373L45.3657 35.3134H45.8967L46.5294 37.1578L47.162 35.3134ZM43.7083 37.9414C43.5188 37.9414 43.3573 37.8999 43.2236 37.8184C43.0899 37.7359 42.9883 37.6161 42.9183 37.4584C42.8488 37.3012 42.8136 37.112 42.8136 36.8907V36.3215C42.8136 36.0992 42.8473 35.9089 42.9157 35.7518C42.9836 35.5941 43.0831 35.4742 43.2136 35.3917C43.3436 35.3102 43.5004 35.2687 43.6831 35.2687C43.8362 35.2687 43.9762 35.3087 44.103 35.3886C44.2299 35.4685 44.3331 35.5799 44.4109 35.7244L44.3583 36.2516C44.3583 36.1428 44.3388 36.0487 44.2988 35.9704C44.2583 35.8931 44.2009 35.8338 44.1252 35.7928C44.0504 35.7518 43.9583 35.7318 43.8504 35.7318C43.682 35.7318 43.5525 35.7843 43.4599 35.8889C43.3678 35.9935 43.322 36.1407 43.322 36.3289V36.8913C43.322 37.0789 43.3678 37.2235 43.4599 37.3265C43.5525 37.4284 43.682 37.4794 43.8504 37.4794C43.9583 37.4794 44.0499 37.4584 44.1252 37.4153C44.2009 37.3727 44.2588 37.3118 44.2988 37.2329C44.3388 37.153 44.3583 37.0579 44.3583 36.9465L44.3931 37.491C44.342 37.6192 44.2578 37.7265 44.1404 37.8121C44.0231 37.8983 43.8794 37.9414 43.7083 37.9414ZM44.3583 34.278H44.8667V37.8968H44.3583V34.278ZM39.9004 36.6201H41.8067V37.1026H39.9004V36.6201ZM40.6209 34.278H41.0541L42.3904 37.8968H41.842L40.8373 34.9775L39.8336 37.8968H39.2852L40.6209 34.278Z" fill="#100F0A"/>
<path fill-rule="evenodd" clip-rule="evenodd" d="M38.7619 38.9196C28.3166 29.9385 24.5314 13.0356 22.6124 0.01577C21.7493 2.03988 20.8977 4.06452 20.0108 6.07811C17.9993 10.6672 15.9545 14.7054 13.0687 18.9192C10.0703 18.2123 6.93136 18.8052 5.21294 20.7021C7.37768 19.9031 9.72662 19.7549 12.0345 20.2884C8.91189 24.1585 5.21399 27.2212 0.860833 29.6263C-0.717061 30.8079 0.0387278 32.7526 1.7982 32.9503C2.86662 32.9503 3.52346 32.5582 4.35347 31.9201C7.96925 28.7948 11.2419 24.8901 13.8461 20.8718C19.2845 23.4783 21.7335 26.2561 25.2845 31.0076C29.2156 36.2159 31.6171 39.4914 38.7619 38.9196Z" fill="black"/>
<path fill-rule="evenodd" clip-rule="evenodd" d="M20.3073 9.34108C20.5336 14.4852 21.3515 19.4275 24.2315 26.7213C22.3984 24.4255 18.8189 21.1183 14.791 19.5079C16.9279 16.5692 19.0473 12.1846 20.3073 9.34108Z" fill="#E3000F"/>
<path fill-rule="evenodd" clip-rule="evenodd" d="M57.7315 4.42456L57.8952 4.44769H58.0594L58.2236 4.47081L58.3879 4.49447L58.5515 4.54125L58.7157 4.58802L58.8568 4.6348L59.0205 4.68158L59.161 4.75201L59.3015 4.82192L59.4426 4.916L59.5831 4.98591L59.7242 5.07947L59.841 5.19668L59.9584 5.29023L60.0758 5.38432L60.1926 5.501L60.2868 5.61769L60.3805 5.75855L60.4742 5.87576L60.5679 6.0161L60.6615 6.15643L60.7084 6.2973L60.7789 6.43763L60.8489 6.57797L60.8958 6.74196L60.9431 6.8823L60.99 7.04629L61.0131 7.21027L61.0368 7.37374V7.53825L61.06 7.70172L61.0368 7.86571V8.0297L61.0131 8.19368L60.99 8.35715L60.9431 8.52114L60.8958 8.68513L60.8489 8.82546L60.7789 8.96633L60.7084 9.12979L60.6615 9.27065L60.5679 9.38734L60.4742 9.52767L60.3805 9.66854L60.2868 9.78522L60.1926 9.90243L60.0758 10.0196L59.9584 10.1132L59.841 10.2304L59.7242 10.324L59.5831 10.4175L59.4426 10.488L59.3015 10.5815L59.161 10.6514L59.0205 10.7219L58.8568 10.7686L58.7157 10.8391L58.5515 10.8622L58.3879 10.9095L58.2236 10.9326L58.0594 10.9563L57.8952 10.9794H57.7315H57.5436L57.38 10.9563L57.2152 10.9326L57.0515 10.9095L56.8873 10.8622L56.7231 10.8391L56.5594 10.7686L56.4184 10.7219L56.2773 10.6514L56.1373 10.5815L55.9963 10.488L55.8558 10.4175L55.7152 10.324L55.5979 10.2304L55.481 10.1132L55.3636 10.0196L55.2463 9.90243L55.1526 9.78522L55.0352 9.66854L54.9415 9.52767L54.871 9.38734L54.7773 9.27065L54.7073 9.12979L54.6368 8.96633L54.59 8.82546L54.5194 8.68513L54.4963 8.52114L54.4489 8.35715L54.4257 8.19368L54.4026 8.0297L54.3789 7.86571V7.70172V7.53825L54.4026 7.37374L54.4257 7.21027L54.4489 7.04629L54.4963 6.8823L54.5194 6.74196L54.59 6.57797L54.6368 6.43763L54.7073 6.2973L54.7773 6.15643L54.871 6.0161L54.9415 5.87576L55.0352 5.75855L55.1526 5.61769L55.2463 5.501L55.3636 5.38432L55.481 5.29023L55.5979 5.19668L55.7152 5.07947L55.8558 4.98591L55.9963 4.916L56.1373 4.82192L56.2773 4.75201L56.4184 4.68158L56.5594 4.6348L56.7231 4.58802L56.8873 4.54125L57.0515 4.49447L57.2152 4.47081L57.38 4.44769H57.5436L57.7315 4.42456Z" fill="#D40E14"/>
<path fill-rule="evenodd" clip-rule="evenodd" d="M38.7417 17.5227C39.3338 17.5227 39.4801 19.172 39.4848 19.5463C39.4906 19.9872 39.409 21.6849 38.6948 21.6849C38.0301 21.6849 37.8806 20.0456 37.8817 19.561C37.8833 19.0622 37.9685 17.5227 38.7417 17.5227ZM38.5327 23.7737C35.738 25.638 30.8796 23.7611 30.5775 20.0014C30.4633 18.5844 31.0027 17.1306 32.2011 16.0105C35.4996 13.2863 38.4585 15.7209 39.1406 15.3824L39.2106 15.3593L39.2343 15.313L39.2811 15.2662L39.3048 15.22L39.328 15.1737L39.3511 15.1038V15.0345L39.3748 14.9645V14.8715L39.398 14.7785V14.6854V14.2671L39.3748 13.732V8.80234C39.3748 7.80053 39.4222 7.12933 38.5075 6.52331C39.4811 3.62301 46.0559 3.51684 46.0559 7.54666V17.1884C46.0559 18.1492 45.9064 20.2658 46.4122 21.1241C47.2775 22.5921 46.6433 24.231 44.798 24.4985C42.7496 24.795 40.3969 22.5306 38.5327 23.7737Z" fill="black"/>
<path fill-rule="evenodd" clip-rule="evenodd" d="M54.0034 17.5132C54.9692 17.5132 55.1344 18.5539 55.1523 19.305V24.5248L61.1065 24.4775V17.5132C60.6144 13.784 53.4476 14.7044 54.0034 17.5132Z" fill="black"/>
<path fill-rule="evenodd" clip-rule="evenodd" d="M79.9785 16.8462C84.4827 12.9068 85.1596 16.6349 88.0433 16.6349C88.9485 16.6349 89.7917 15.1658 92.3075 15.0528C93.769 14.9871 95.7327 16.0946 95.8733 18.0393V24.4544H89.4496V20.3941C89.4496 19.2114 89.4364 18.7195 88.418 18.5145C87.4648 18.5918 87.3864 19.5999 87.3864 20.3757V24.5006H80.658V18.7815C80.658 18.0861 80.4875 17.3545 79.9785 16.8462Z" fill="black"/>
<path fill-rule="evenodd" clip-rule="evenodd" d="M62.6543 16.8462C67.1585 12.9068 67.8353 16.6349 70.719 16.6349C71.6243 16.6349 72.4675 15.1658 74.9832 15.0528C76.4448 14.9871 78.4085 16.0946 78.549 18.0393V24.4544H72.1253V20.3941C72.1253 19.2114 72.1122 18.7195 71.0938 18.5145C70.1406 18.5918 70.0622 19.5999 70.0622 20.3757V24.5006H63.3343V18.7815C63.3338 18.0861 63.1632 17.3545 62.6543 16.8462Z" fill="black"/>
<path d="M99.2957 11.5103C98.9904 11.2296 98.5688 11.0419 98.1231 11.0419C97.6778 11.0419 97.2562 11.2296 96.951 11.5103C96.6699 11.8146 96.482 12.2361 96.482 12.6808C96.482 13.126 96.6699 13.547 96.951 13.8518C97.2557 14.1325 97.6778 14.3201 98.1231 14.3201C98.5688 14.3201 98.9904 14.133 99.2957 13.8518C99.5767 13.547 99.7646 13.126 99.7646 12.6808C99.7646 12.2361 99.5767 11.8146 99.2957 11.5103ZM98.1231 10.8317C98.6388 10.8317 99.1078 11.0188 99.4362 11.3699C99.7878 11.6979 99.9989 12.1662 99.9989 12.6808C99.9989 13.1959 99.7878 13.6642 99.4362 13.9922C99.1078 14.3433 98.6388 14.554 98.1231 14.554C97.6078 14.554 97.1389 14.3433 96.8104 13.9922C96.4589 13.6642 96.2715 13.1959 96.2715 12.6808C96.2715 12.1662 96.4589 11.6979 96.8104 11.3699C97.1389 11.0188 97.6078 10.8317 98.1231 10.8317Z" fill="#100F0A"/>
<path fill-rule="evenodd" clip-rule="evenodd" d="M97.7567 11.987V12.5715H98.2952C98.3146 12.573 98.3367 12.5741 98.3594 12.573C98.3825 12.572 98.4067 12.5694 98.4315 12.5646C98.4641 12.5594 98.4967 12.5515 98.5283 12.5404C98.5594 12.5289 98.5862 12.5121 98.6078 12.491C98.6357 12.4632 98.6578 12.4311 98.6736 12.3954C98.6889 12.3591 98.6973 12.3213 98.6973 12.2818C98.6973 12.2251 98.6841 12.1752 98.6573 12.1321C98.631 12.0895 98.5983 12.0579 98.5604 12.0374C98.5241 12.0175 98.4857 12.0043 98.4462 11.997C98.4067 11.9907 98.3636 11.987 98.3173 11.987H97.7567ZM97.5215 13.5654V11.7915H98.3073C98.3562 11.793 98.4052 11.7951 98.4525 11.7978C98.4999 11.8004 98.5462 11.8072 98.5925 11.8188C98.6041 11.8225 98.6157 11.8251 98.6273 11.8288C98.6389 11.8319 98.6504 11.8361 98.662 11.8414C98.7531 11.8761 98.822 11.9349 98.8694 12.018C98.9162 12.101 98.9399 12.1893 98.9399 12.2818C98.9399 12.4232 98.8946 12.5336 98.8046 12.6119C98.7146 12.6902 98.5931 12.7397 98.4415 12.7591V12.7617C98.4857 12.7849 98.5357 12.8174 98.5899 12.8605C98.6446 12.9036 98.7067 12.9788 98.7757 13.0855L99.0857 13.5654H98.791L98.5578 13.1985C98.482 13.0818 98.4189 12.9935 98.3678 12.9362C98.3178 12.8779 98.2704 12.8385 98.2257 12.8169C98.1957 12.8022 98.1652 12.7927 98.1341 12.7901C98.1025 12.7864 98.0667 12.7849 98.0273 12.7849H97.7573V13.5654H97.5215Z" fill="#12100C"/>
<path fill-rule="evenodd" clip-rule="evenodd" d="M32.982 28.6655H95.872V29.9075C90.2789 29.9075 33.7215 29.8918 33.7115 29.8839C33.2552 29.5291 33.092 29.1044 32.9747 28.6724C32.9741 28.6692 32.9778 28.6655 32.982 28.6655Z" fill="#E3000F"/>
<path fill-rule="evenodd" clip-rule="evenodd" d="M32.982 28.6655H95.872V29.9075C90.2789 29.9075 33.7215 29.8918 33.7115 29.8839C33.2552 29.5291 33.092 29.1044 32.9747 28.6724C32.9741 28.6692 32.9778 28.6655 32.982 28.6655Z" fill="#E3000F"/>
</g>
<defs>
<clipPath id="clip0_177_781">
<rect width="100" height="39" fill="white"/>
</clipPath>
</defs>
</svg>
