<svg width="100" height="39" viewBox="0 0 100 39" fill="none" xmlns="http://www.w3.org/2000/svg">
<g clip-path="url(#clip0_556_935)">
<path d="M95.3395 37.3638H95.8732V37.8962H95.3395V37.3638ZM93.4958 37.9414C93.3064 37.9414 93.1448 37.8999 93.0111 37.8184C92.8774 37.7359 92.7759 37.6161 92.7059 37.4584C92.6359 37.3012 92.6011 37.112 92.6011 36.8907V36.3215C92.6011 36.0992 92.6353 35.9089 92.7032 35.7517C92.7711 35.5941 92.8706 35.4742 93.0011 35.3917C93.1311 35.3102 93.288 35.2687 93.4706 35.2687C93.6237 35.2687 93.7637 35.3087 93.8906 35.3886C94.0174 35.4684 94.1201 35.5799 94.1985 35.7244L94.1459 36.2516C94.1459 36.1428 94.1264 36.0487 94.0864 35.9704C94.0464 35.8931 93.9885 35.8337 93.9127 35.7927C93.838 35.7517 93.7464 35.7318 93.638 35.7318C93.4695 35.7318 93.3401 35.7843 93.2474 35.8889C93.1553 35.9935 93.1095 36.1407 93.1095 36.3289V36.8913C93.1095 37.0789 93.1553 37.2234 93.2474 37.3265C93.3401 37.4284 93.4695 37.4794 93.638 37.4794C93.7458 37.4794 93.8374 37.4584 93.9127 37.4153C93.9885 37.3727 94.0464 37.3117 94.0864 37.2329C94.1264 37.153 94.1459 37.0579 94.1459 36.9465L94.1806 37.491C94.1295 37.6192 94.0453 37.7265 93.928 37.8121C93.8106 37.8983 93.6669 37.9414 93.4958 37.9414ZM94.1459 34.2779H94.6548V37.8967H94.1459V34.2779ZM90.8116 35.3134H91.978V35.7712H90.8116V35.3134ZM91.6843 37.9094C91.4748 37.9094 91.3222 37.8515 91.2243 37.7359C91.1274 37.6203 91.079 37.4505 91.079 37.2245V34.5618H91.588V37.2298C91.588 37.2928 91.6001 37.3412 91.6243 37.3748C91.6495 37.409 91.6864 37.4258 91.7337 37.4258H91.978V37.9094H91.6843ZM88.3901 37.4137H90.4637V37.8962H88.3901V37.4137ZM88.1358 34.2779H88.6443V37.8967H88.1358V34.2779ZM84.9843 37.9341C84.8311 37.9341 84.6885 37.9188 84.5548 37.8889C84.4201 37.8589 84.2953 37.8142 84.1795 37.7548C84.0632 37.6954 83.9559 37.6203 83.858 37.5304L84.159 37.1604C84.2985 37.2665 84.4369 37.3464 84.5758 37.399C84.7137 37.4526 84.8501 37.4789 84.9843 37.4789C85.1848 37.4789 85.3364 37.4474 85.4369 37.3853C85.5374 37.3233 85.5874 37.2298 85.5874 37.1052C85.5874 37.0227 85.5601 36.9601 85.5048 36.9191C85.4506 36.8776 85.3822 36.8492 85.3006 36.835C85.219 36.8214 85.1048 36.8087 84.9569 36.7967C84.9432 36.7967 84.9295 36.7967 84.9143 36.7956C84.899 36.7946 84.8853 36.793 84.8716 36.7914C84.8648 36.7914 84.859 36.7914 84.8522 36.7903C84.8453 36.7893 84.8385 36.7888 84.8316 36.7888C84.6643 36.7762 84.5216 36.7515 84.4053 36.7157C84.2895 36.68 84.1927 36.6127 84.1153 36.5155C84.038 36.4177 83.9995 36.2779 83.9995 36.095C83.9995 35.9121 84.0369 35.7602 84.1116 35.6398C84.1859 35.5184 84.2969 35.4275 84.4453 35.367C84.5932 35.3071 84.7785 35.2761 85.0016 35.2761C85.1359 35.2761 85.2643 35.2887 85.3864 35.3134C85.5085 35.3381 85.6253 35.3754 85.7369 35.4238C85.8485 35.4727 85.9553 35.5352 86.0585 35.6098L85.7516 35.9804C85.6222 35.8968 85.4948 35.8353 85.3695 35.7938C85.2437 35.7533 85.1211 35.7318 85.0022 35.7318C84.8285 35.7318 84.699 35.7617 84.6127 35.8201C84.5269 35.8789 84.4832 35.9672 84.4832 36.085C84.4832 36.1544 84.508 36.2075 84.5574 36.2421C84.6059 36.2768 84.668 36.3 84.7427 36.312C84.8174 36.3231 84.9237 36.3331 85.0616 36.342C85.0722 36.3436 85.0822 36.3446 85.0922 36.3446C85.1032 36.3446 85.1143 36.3457 85.1264 36.3473C85.1311 36.3473 85.1364 36.3473 85.1416 36.3473C85.1458 36.3473 85.1511 36.3483 85.1558 36.3499C85.3369 36.3609 85.4911 36.3856 85.6185 36.4219C85.7453 36.4587 85.8522 36.5307 85.938 36.6384C86.0248 36.7462 86.0674 36.9018 86.0674 37.1057C86.0674 37.2918 86.0285 37.4453 85.948 37.5677C85.868 37.6891 85.7485 37.7811 85.5874 37.8431C85.4285 37.9036 85.2269 37.9341 84.9843 37.9341ZM82.3927 37.9341C82.1537 37.9341 81.949 37.8889 81.7795 37.8C81.6101 37.7102 81.4811 37.5782 81.3922 37.4053C81.3032 37.2319 81.2585 37.0232 81.2585 36.7777V36.4865C81.2585 36.2311 81.3011 36.0124 81.3869 35.8316C81.4722 35.6508 81.5964 35.5131 81.7595 35.419C81.9222 35.325 82.119 35.2771 82.3474 35.2771C82.5632 35.2771 82.748 35.3313 82.9011 35.4385C83.0532 35.5462 83.1701 35.7023 83.2506 35.9063C83.3316 36.1102 83.3716 36.3557 83.3716 36.6411V36.8103H81.628V36.4019H82.8885C82.8732 36.1912 82.819 36.0272 82.7253 35.911C82.6316 35.7938 82.5058 35.7349 82.3474 35.7349C82.1553 35.7349 82.0053 35.7975 81.9001 35.9241C81.7948 36.0498 81.7416 36.2279 81.7416 36.4592V36.7872C81.7416 37.0011 81.7985 37.1662 81.9111 37.2797C82.0243 37.3943 82.1848 37.4521 82.3927 37.4521C82.4953 37.4521 82.598 37.4305 82.699 37.3895C82.8001 37.3485 82.8911 37.2902 82.9711 37.215L83.3043 37.5488C83.1769 37.6713 83.0332 37.7664 82.8732 37.8332C82.7143 37.8999 82.5532 37.9341 82.3927 37.9341ZM79.8353 37.9341C79.6001 37.9341 79.398 37.8899 79.2316 37.8027C79.0648 37.7144 78.9374 37.5866 78.849 37.4184C78.7616 37.2513 78.7174 37.0489 78.7174 36.8119V36.3867C78.7174 36.1523 78.7616 35.9525 78.849 35.787C78.9374 35.6203 79.0653 35.4937 79.2316 35.4075C79.3985 35.3197 79.6001 35.2766 79.8353 35.2766C79.9706 35.2766 80.0964 35.2929 80.2153 35.325C80.3348 35.357 80.4411 35.4038 80.5359 35.4658C80.6301 35.5273 80.7095 35.602 80.7722 35.6892L80.4053 36.0182C80.3322 35.9347 80.2474 35.8711 80.1485 35.8264C80.0506 35.7822 79.9485 35.7591 79.8422 35.7591C79.6464 35.7591 79.4943 35.8143 79.3864 35.9241C79.2785 36.0335 79.2248 36.1875 79.2248 36.3872V36.8124C79.2248 37.0164 79.2785 37.1735 79.3858 37.2844C79.4922 37.3958 79.6453 37.4516 79.8427 37.4516C79.9506 37.4516 80.0537 37.4269 80.1516 37.3796C80.2506 37.3312 80.3348 37.2634 80.4058 37.1746L80.7727 37.5278C80.708 37.6145 80.628 37.6876 80.5337 37.7485C80.4385 37.809 80.3322 37.8547 80.2132 37.8862C80.0948 37.9178 79.969 37.9341 79.8353 37.9341ZM77.5111 35.3134H78.019V37.8967H77.5111V35.3134ZM77.5111 34.2779H78.019V34.7857H77.5111V34.2779ZM76.4816 35.3134H77.0127L76.0406 37.8967H75.6569L74.6853 35.3134H75.2164L75.849 37.1577L76.4816 35.3134ZM74.2037 35.9257C74.1585 35.8705 74.1016 35.829 74.0337 35.8012C73.9659 35.7728 73.8874 35.7586 73.7974 35.7586C73.6364 35.7586 73.5116 35.8038 73.4222 35.8921C73.3337 35.9809 73.2885 36.1044 73.2885 36.2616L73.2364 35.7638C73.3164 35.6098 73.4195 35.4895 73.5453 35.4043C73.6722 35.3187 73.8116 35.2761 73.9637 35.2761C74.0822 35.2761 74.189 35.2929 74.2843 35.3271C74.3795 35.3612 74.4627 35.4112 74.5343 35.4774L74.2037 35.9257ZM72.7806 35.3134H73.2885V37.8967H72.7806V35.3134ZM71.1032 37.9341C70.8643 37.9341 70.6595 37.8889 70.4901 37.8C70.3206 37.7102 70.1916 37.5782 70.1027 37.4053C70.0137 37.2319 69.969 37.0232 69.969 36.7777V36.4865C69.969 36.2311 70.0116 36.0124 70.0974 35.8316C70.1827 35.6508 70.3069 35.5131 70.4701 35.419C70.6327 35.325 70.829 35.2771 71.058 35.2771C71.2743 35.2771 71.4585 35.3313 71.6116 35.4385C71.7637 35.5462 71.8806 35.7023 71.9611 35.9063C72.0422 36.1102 72.0822 36.3557 72.0822 36.6411V36.8103H70.3385V36.4019H71.599C71.5837 36.1912 71.5295 36.0272 71.4359 35.911C71.3422 35.7938 71.2164 35.7349 71.058 35.7349C70.8658 35.7349 70.7164 35.7975 70.6106 35.9241C70.5053 36.0498 70.4527 36.2279 70.4527 36.4592V36.7872C70.4527 37.0011 70.5095 37.1662 70.6222 37.2797C70.7353 37.3943 70.8958 37.4521 71.1032 37.4521C71.2058 37.4521 71.3085 37.4305 71.4095 37.3895C71.5106 37.3485 71.6016 37.2902 71.6816 37.215L72.0148 37.5488C71.8874 37.6713 71.7437 37.7664 71.5837 37.8332C71.4248 37.8999 71.2643 37.9341 71.1032 37.9341ZM68.0411 37.9341C67.8669 37.9341 67.7011 37.9172 67.5453 37.8841C67.389 37.851 67.2432 37.8016 67.1074 37.7354C66.9722 37.6681 66.8453 37.5861 66.728 37.4868L67.0443 37.0984C67.1822 37.2177 67.3343 37.3075 67.5001 37.3669C67.6659 37.4263 67.8464 37.4563 68.0411 37.4563C68.3032 37.4563 68.5064 37.4079 68.6511 37.3112C68.7953 37.2145 68.868 37.0768 68.868 36.8991V36.8965C68.868 36.7709 68.8359 36.6705 68.7701 36.5969C68.7037 36.5228 68.6195 36.4687 68.5159 36.4329C68.4122 36.3972 68.2774 36.3641 68.1137 36.3341C68.1085 36.3325 68.1027 36.3315 68.0974 36.3315C68.0911 36.3315 68.0853 36.3304 68.0806 36.3289L68.0437 36.322C67.8006 36.2805 67.6032 36.2332 67.4516 36.1812C67.2995 36.1286 67.169 36.0335 67.0611 35.8947C66.9532 35.7565 66.8995 35.5594 66.8995 35.3034V35.3008C66.8995 35.0774 66.9495 34.8861 67.0501 34.7273C67.1506 34.5697 67.2974 34.4477 67.4901 34.3657C67.6832 34.2827 67.9143 34.2412 68.1859 34.2412C68.3153 34.2412 68.4427 34.2553 68.568 34.2837C68.6937 34.3116 68.8169 34.3542 68.9395 34.4093C69.0611 34.4645 69.1811 34.535 69.2995 34.6201L69.0101 35.0227C68.8722 34.9218 68.7353 34.8461 68.5974 34.7951C68.4606 34.7452 68.3232 34.7195 68.1859 34.7195C67.9385 34.7195 67.7453 34.7689 67.6085 34.8672C67.4716 34.966 67.4037 35.1058 67.4037 35.2871V35.2897C67.4037 35.4138 67.4385 35.5115 67.509 35.5825C67.5795 35.654 67.668 35.7065 67.7737 35.7407C67.879 35.7743 68.0253 35.8101 68.2137 35.8469C68.2206 35.8485 68.2264 35.8495 68.2322 35.85C68.238 35.8511 68.2443 35.8527 68.2511 35.8542C68.2595 35.8558 68.268 35.8574 68.278 35.859C68.288 35.86 68.2969 35.8616 68.3053 35.8632C68.5248 35.9084 68.7074 35.962 68.8548 36.023C69.0016 36.0839 69.1253 36.1833 69.2237 36.3199C69.3227 36.4566 69.3716 36.6437 69.3716 36.8813V36.8855C69.3716 37.1062 69.3195 37.2949 69.2148 37.4521C69.1095 37.6092 68.958 37.728 68.7595 37.8105C68.5606 37.8931 68.3216 37.9341 68.0411 37.9341ZM63.6006 37.9414C63.4111 37.9414 63.2495 37.8999 63.1158 37.8184C62.9822 37.7359 62.8806 37.6161 62.8106 37.4584C62.7406 37.3012 62.7059 37.112 62.7059 36.8907V36.3215C62.7059 36.0992 62.7395 35.9089 62.808 35.7517C62.8758 35.5941 62.9753 35.4742 63.1059 35.3917C63.2359 35.3102 63.3927 35.2687 63.5753 35.2687C63.7285 35.2687 63.8685 35.3087 63.9953 35.3886C64.1222 35.4684 64.2248 35.5799 64.3032 35.7244L64.2506 36.2516C64.2506 36.1428 64.2311 36.0487 64.1911 35.9704C64.1511 35.8931 64.0932 35.8337 64.0174 35.7927C63.9427 35.7517 63.8506 35.7318 63.7427 35.7318C63.5743 35.7318 63.4448 35.7843 63.3522 35.8889C63.2601 35.9935 63.2143 36.1407 63.2143 36.3289V36.8913C63.2143 37.0789 63.2601 37.2234 63.3522 37.3265C63.4448 37.4284 63.5743 37.4794 63.7427 37.4794C63.8506 37.4794 63.9422 37.4584 64.0174 37.4153C64.0932 37.3727 64.1511 37.3117 64.1911 37.2329C64.2311 37.153 64.2506 37.0579 64.2506 36.9465L64.2853 37.491C64.2343 37.6192 64.1501 37.7265 64.0327 37.8121C63.9158 37.8983 63.7716 37.9414 63.6006 37.9414ZM63.6474 38.9464C63.4537 38.9464 63.279 38.9106 63.1259 38.8386C62.9722 38.7666 62.8527 38.6647 62.768 38.5338L63.1116 38.2226C63.1785 38.3136 63.258 38.384 63.3501 38.4344C63.4427 38.4839 63.539 38.5091 63.6401 38.5091C63.8348 38.5091 63.9853 38.4555 64.0916 38.3488C64.198 38.2415 64.2506 38.0902 64.2506 37.8941V35.3134H64.7595V37.8195C64.7595 38.0565 64.7164 38.2605 64.6285 38.4292C64.5416 38.5984 64.4153 38.7272 64.2485 38.815C64.0827 38.9033 63.8827 38.9464 63.6474 38.9464ZM61.5001 36.331C61.5001 36.1481 61.4527 36.0072 61.3574 35.9079C61.2632 35.8085 61.1301 35.7581 60.9595 35.7581C60.7932 35.7581 60.6653 35.8022 60.5743 35.8905C60.4843 35.9778 60.4385 36.1018 60.4385 36.2611L60.3864 35.7633C60.4664 35.6077 60.5701 35.4874 60.699 35.4022C60.8274 35.3181 60.9695 35.2756 61.1264 35.2756C61.4069 35.2756 61.6237 35.3675 61.778 35.5504C61.9322 35.7339 62.0085 35.993 62.0085 36.3278V37.8957H61.5006V36.331H61.5001ZM59.9301 35.3134H60.438V37.8967H59.9301V35.3134ZM58.649 35.3134H59.1569V37.8967H58.649V35.3134ZM58.649 34.2779H59.1569V34.7857H58.649V34.2779ZM56.9169 37.9341C56.7637 37.9341 56.6206 37.9188 56.4874 37.8889C56.3532 37.8589 56.228 37.8142 56.1122 37.7548C55.9959 37.6954 55.8885 37.6203 55.7906 37.5304L56.0916 37.1604C56.2311 37.2665 56.3695 37.3464 56.5085 37.399C56.6464 37.4526 56.7827 37.4789 56.9169 37.4789C57.1174 37.4789 57.269 37.4474 57.3695 37.3853C57.4701 37.3233 57.5201 37.2298 57.5201 37.1052C57.5201 37.0227 57.4927 36.9601 57.4374 36.9191C57.3832 36.8776 57.3148 36.8492 57.2332 36.835C57.1516 36.8214 57.038 36.8087 56.8895 36.7967C56.8759 36.7967 56.8622 36.7967 56.8469 36.7956C56.8316 36.7946 56.818 36.793 56.8043 36.7914C56.7974 36.7914 56.7916 36.7914 56.7848 36.7903C56.778 36.7893 56.7711 36.7888 56.7643 36.7888C56.5969 36.7762 56.4543 36.7515 56.338 36.7157C56.2222 36.68 56.1253 36.6127 56.048 36.5155C55.9706 36.4177 55.9322 36.2779 55.9322 36.095C55.9322 35.9121 55.9695 35.7602 56.0443 35.6398C56.1185 35.5184 56.2295 35.4275 56.378 35.367C56.5259 35.3071 56.7111 35.2761 56.9343 35.2761C57.0685 35.2761 57.1969 35.2887 57.319 35.3134C57.4411 35.3381 57.558 35.3754 57.6695 35.4238C57.7811 35.4727 57.888 35.5352 57.9911 35.6098L57.6837 35.9804C57.5543 35.8968 57.4269 35.8353 57.3016 35.7938C57.1758 35.7533 57.0532 35.7318 56.9343 35.7318C56.7606 35.7318 56.6311 35.7617 56.5443 35.8201C56.4585 35.8789 56.4148 35.9672 56.4148 36.085C56.4148 36.1544 56.4395 36.2075 56.489 36.2421C56.5374 36.2768 56.5995 36.3 56.6743 36.312C56.749 36.3231 56.8559 36.3331 56.9932 36.342C57.0037 36.3436 57.0137 36.3446 57.0237 36.3446C57.0348 36.3446 57.0458 36.3457 57.058 36.3473C57.0627 36.3473 57.068 36.3473 57.0732 36.3473C57.0774 36.3473 57.0827 36.3483 57.088 36.3499C57.269 36.3609 57.4232 36.3856 57.5506 36.4219C57.6774 36.4587 57.7843 36.5307 57.8706 36.6384C57.9574 36.7462 58.0001 36.9018 58.0001 37.1057C58.0001 37.2918 57.9611 37.4453 57.8806 37.5677C57.8006 37.6891 57.6811 37.7811 57.5201 37.8431C57.3611 37.9036 57.1595 37.9341 56.9169 37.9341ZM54.7216 35.3134H55.2295V37.8967H54.7216V35.3134ZM54.7216 34.2779H55.2295V34.7857H54.7216V34.2779ZM52.8569 35.3134H54.0232V35.7712H52.8569V35.3134ZM53.7295 37.9094C53.5201 37.9094 53.3669 37.8515 53.2695 37.7359C53.1727 37.6203 53.1243 37.4505 53.1243 37.2245V34.5618H53.6327V37.2298C53.6327 37.2928 53.6448 37.3412 53.6695 37.3748C53.6948 37.409 53.7316 37.4258 53.779 37.4258H54.0232V37.9094H53.7295ZM52.3016 35.9257C52.2564 35.8705 52.1995 35.829 52.1316 35.8012C52.0637 35.7728 51.9853 35.7586 51.8953 35.7586C51.7343 35.7586 51.6095 35.8038 51.5201 35.8921C51.4316 35.9809 51.3864 36.1044 51.3864 36.2616L51.3343 35.7638C51.4143 35.6098 51.5174 35.4895 51.6432 35.4043C51.7701 35.3187 51.9095 35.2761 52.0616 35.2761C52.1801 35.2761 52.2869 35.2929 52.3822 35.3271C52.4774 35.3612 52.5606 35.4112 52.6322 35.4774L52.3016 35.9257ZM50.8785 35.3134H51.3864V37.8967H50.8785V35.3134ZM49.2011 37.9341C48.9622 37.9341 48.7574 37.8889 48.588 37.8C48.4185 37.7102 48.2895 37.5782 48.2006 37.4053C48.1111 37.2319 48.0669 37.0232 48.0669 36.7777V36.4865C48.0669 36.2311 48.1095 36.0124 48.1953 35.8316C48.2806 35.6508 48.4048 35.5131 48.568 35.419C48.7306 35.325 48.9269 35.2771 49.1559 35.2771C49.3716 35.2771 49.5564 35.3313 49.7095 35.4385C49.8616 35.5462 49.9785 35.7023 50.059 35.9063C50.1401 36.1102 50.1801 36.3557 50.1801 36.6411V36.8103H48.4364V36.4019H49.6969C49.6816 36.1912 49.6274 36.0272 49.5337 35.911C49.4401 35.7938 49.3143 35.7349 49.1559 35.7349C48.9637 35.7349 48.8137 35.7975 48.7085 35.9241C48.6032 36.0498 48.5506 36.2279 48.5506 36.4592V36.7872C48.5506 37.0011 48.6074 37.1662 48.7201 37.2797C48.8332 37.3943 48.9937 37.4521 49.2016 37.4521C49.3043 37.4521 49.4069 37.4305 49.508 37.3895C49.609 37.3485 49.7001 37.2902 49.7801 37.215L50.1132 37.5488C49.9859 37.6713 49.8422 37.7664 49.6822 37.8332C49.5227 37.8999 49.3622 37.9341 49.2011 37.9341ZM47.1632 35.3134H47.6943L46.7222 37.8967H46.3385L45.3669 35.3134H45.898L46.5306 37.1577L47.1632 35.3134ZM43.7095 37.9414C43.5201 37.9414 43.3585 37.8999 43.2248 37.8184C43.0911 37.7359 42.9895 37.6161 42.9195 37.4584C42.8501 37.3012 42.8148 37.112 42.8148 36.8907V36.3215C42.8148 36.0992 42.8485 35.9089 42.9169 35.7517C42.9848 35.5941 43.0843 35.4742 43.2148 35.3917C43.3448 35.3102 43.5016 35.2687 43.6843 35.2687C43.8374 35.2687 43.9774 35.3087 44.1043 35.3886C44.2311 35.4684 44.3343 35.5799 44.4122 35.7244L44.3595 36.2516C44.3595 36.1428 44.3401 36.0487 44.3001 35.9704C44.2595 35.8931 44.2022 35.8337 44.1264 35.7927C44.0516 35.7517 43.9595 35.7318 43.8516 35.7318C43.6832 35.7318 43.5537 35.7843 43.4611 35.8889C43.369 35.9935 43.3232 36.1407 43.3232 36.3289V36.8913C43.3232 37.0789 43.369 37.2234 43.4611 37.3265C43.5537 37.4284 43.6832 37.4794 43.8516 37.4794C43.9595 37.4794 44.0511 37.4584 44.1264 37.4153C44.2022 37.3727 44.2601 37.3117 44.3001 37.2329C44.3401 37.153 44.3595 37.0579 44.3595 36.9465L44.3943 37.491C44.3432 37.6192 44.259 37.7265 44.1416 37.8121C44.0243 37.8983 43.8806 37.9414 43.7095 37.9414ZM44.3595 34.2779H44.868V37.8967H44.3595V34.2779ZM39.9016 36.62H41.808V37.1026H39.9016V36.62ZM40.6222 34.2779H41.0553L42.3916 37.8967H41.8432L40.8385 34.9775L39.8348 37.8967H39.2864L40.6222 34.2779Z" fill="#100F0A"/>
<path fill-rule="evenodd" clip-rule="evenodd" d="M38.7621 38.9196C28.3169 29.9385 24.5316 13.0356 22.6127 0.0157681C21.7495 2.03988 20.8979 4.06451 20.0111 6.07811C17.9995 10.6672 15.9548 14.7054 13.069 18.9192C10.0706 18.2123 6.9316 18.8051 5.21318 20.7021C7.37792 19.9031 9.72687 19.7549 12.0348 20.2884C8.91213 24.1584 5.21424 27.2212 0.861077 29.6263C-0.716817 30.8079 0.038972 32.7526 1.79845 32.9503C2.86687 32.9503 3.52371 32.5582 4.35371 31.9201C7.9695 28.7948 11.2421 24.8901 13.8463 20.8718C19.2848 23.4783 21.7337 26.2561 25.2848 31.0076C29.2158 36.2159 31.6174 39.4914 38.7621 38.9196Z" fill="black"/>
<path fill-rule="evenodd" clip-rule="evenodd" d="M20.3073 9.34108C20.5336 14.4852 21.3515 19.4275 24.2315 26.7213C22.3984 24.4255 18.8189 21.1183 14.791 19.5079C16.9279 16.5692 19.0473 12.1846 20.3073 9.34108Z" fill="#E3000F"/>
<path fill-rule="evenodd" clip-rule="evenodd" d="M57.7311 4.42455L57.8947 4.44768H58.0589L58.2232 4.47081L58.3874 4.49446L58.5511 4.54124L58.7153 4.58802L58.8563 4.6348L59.02 4.68158L59.1605 4.75201L59.3011 4.82191L59.4421 4.916L59.5826 4.9859L59.7237 5.07946L59.8405 5.19667L59.9579 5.29023L60.0753 5.38431L60.1921 5.501L60.2863 5.61768L60.38 5.75854L60.4737 5.87575L60.5674 6.01609L60.6611 6.15643L60.7079 6.29729L60.7784 6.43763L60.8484 6.57796L60.8953 6.74195L60.9426 6.88229L60.9895 7.04628L61.0126 7.21027L61.0363 7.37373V7.53825L61.0595 7.70171L61.0363 7.8657V8.02969L61.0126 8.19368L60.9895 8.35714L60.9426 8.52113L60.8953 8.68512L60.8484 8.82546L60.7784 8.96632L60.7079 9.12978L60.6611 9.27065L60.5674 9.38733L60.4737 9.52767L60.38 9.66853L60.2863 9.78521L60.1921 9.90242L60.0753 10.0196L59.9579 10.1132L59.8405 10.2304L59.7237 10.324L59.5826 10.4175L59.4421 10.488L59.3011 10.5815L59.1605 10.6514L59.02 10.7218L58.8563 10.7686L58.7153 10.8391L58.5511 10.8622L58.3874 10.9095L58.2232 10.9326L58.0589 10.9563L57.8947 10.9794H57.7311H57.5432L57.3795 10.9563L57.2147 10.9326L57.0511 10.9095L56.8868 10.8622L56.7226 10.8391L56.5589 10.7686L56.4179 10.7218L56.2768 10.6514L56.1368 10.5815L55.9958 10.488L55.8553 10.4175L55.7147 10.324L55.5974 10.2304L55.4805 10.1132L55.3632 10.0196L55.2458 9.90242L55.1521 9.78521L55.0347 9.66853L54.9411 9.52767L54.8705 9.38733L54.7768 9.27065L54.7068 9.12978L54.6363 8.96632L54.5895 8.82546L54.5189 8.68512L54.4958 8.52113L54.4484 8.35714L54.4253 8.19368L54.4021 8.02969L54.3784 7.8657V7.70171V7.53825L54.4021 7.37373L54.4253 7.21027L54.4484 7.04628L54.4958 6.88229L54.5189 6.74195L54.5895 6.57796L54.6363 6.43763L54.7068 6.29729L54.7768 6.15643L54.8705 6.01609L54.9411 5.87575L55.0347 5.75854L55.1521 5.61768L55.2458 5.501L55.3632 5.38431L55.4805 5.29023L55.5974 5.19667L55.7147 5.07946L55.8553 4.9859L55.9958 4.916L56.1368 4.82191L56.2768 4.75201L56.4179 4.68158L56.5589 4.6348L56.7226 4.58802L56.8868 4.54124L57.0511 4.49446L57.2147 4.47081L57.3795 4.44768H57.5432L57.7311 4.42455Z" fill="#D40E14"/>
<path fill-rule="evenodd" clip-rule="evenodd" d="M38.7422 17.5227C39.3343 17.5227 39.4806 19.172 39.4853 19.5463C39.4911 19.9872 39.4095 21.6849 38.6953 21.6849C38.0306 21.6849 37.8811 20.0456 37.8822 19.561C37.8837 19.0622 37.969 17.5227 38.7422 17.5227ZM38.5332 23.7737C35.7385 25.638 30.8801 23.7611 30.578 20.0014C30.4637 18.5844 31.0032 17.1306 32.2016 16.0105C35.5001 13.2863 38.459 15.7209 39.1411 15.3824L39.2111 15.3593L39.2348 15.313L39.2816 15.2662L39.3053 15.22L39.3285 15.1737L39.3516 15.1038V15.0344L39.3753 14.9645V14.8715L39.3985 14.7785V14.6854V14.2671L39.3753 13.732V8.80233C39.3753 7.80053 39.4227 7.12933 38.508 6.5233C39.4816 3.62301 46.0564 3.51683 46.0564 7.54666V17.1884C46.0564 18.1492 45.9069 20.2658 46.4127 21.1241C47.278 22.5921 46.6437 24.231 44.7985 24.4985C42.7501 24.795 40.3974 22.5306 38.5332 23.7737Z" fill="black"/>
<path fill-rule="evenodd" clip-rule="evenodd" d="M54.0036 17.5132C54.9694 17.5132 55.1347 18.5539 55.1526 19.305V24.5248L61.1068 24.4775V17.5132C60.6147 13.784 53.4478 14.7044 54.0036 17.5132Z" fill="black"/>
<path fill-rule="evenodd" clip-rule="evenodd" d="M79.9785 16.8462C84.4827 12.9068 85.1596 16.6349 88.0433 16.6349C88.9485 16.6349 89.7917 15.1658 92.3075 15.0528C93.769 14.9871 95.7327 16.0946 95.8733 18.0393V24.4544H89.4496V20.3941C89.4496 19.2114 89.4364 18.7195 88.418 18.5145C87.4648 18.5918 87.3864 19.5999 87.3864 20.3757V24.5006H80.658V18.7815C80.658 18.0861 80.4875 17.3545 79.9785 16.8462Z" fill="black"/>
<path fill-rule="evenodd" clip-rule="evenodd" d="M62.6543 16.8462C67.1585 12.9068 67.8353 16.6349 70.719 16.6349C71.6243 16.6349 72.4675 15.1658 74.9832 15.0528C76.4448 14.9871 78.4085 16.0946 78.549 18.0393V24.4544H72.1253V20.3941C72.1253 19.2114 72.1122 18.7195 71.0938 18.5145C70.1406 18.5918 70.0622 19.5999 70.0622 20.3757V24.5006H63.3343V18.7815C63.3338 18.0861 63.1632 17.3545 62.6543 16.8462Z" fill="black"/>
<path d="M99.2969 11.5103C98.9917 11.2296 98.5701 11.0419 98.1243 11.0419C97.679 11.0419 97.2574 11.2296 96.9522 11.5103C96.6711 11.8146 96.4832 12.2361 96.4832 12.6808C96.4832 13.126 96.6711 13.547 96.9522 13.8518C97.2569 14.1325 97.679 14.3201 98.1243 14.3201C98.5701 14.3201 98.9917 14.133 99.2969 13.8518C99.578 13.547 99.7659 13.126 99.7659 12.6808C99.7659 12.2361 99.578 11.8146 99.2969 11.5103ZM98.1243 10.8317C98.6401 10.8317 99.109 11.0188 99.4374 11.3699C99.789 11.6979 100 12.1662 100 12.6808C100 13.1959 99.789 13.6642 99.4374 13.9922C99.109 14.3433 98.6401 14.554 98.1243 14.554C97.609 14.554 97.1401 14.3433 96.8117 13.9922C96.4601 13.6642 96.2727 13.1959 96.2727 12.6808C96.2727 12.1662 96.4601 11.6979 96.8117 11.3699C97.1401 11.0188 97.609 10.8317 98.1243 10.8317Z" fill="#100F0A"/>
<path fill-rule="evenodd" clip-rule="evenodd" d="M97.7567 11.987V12.5715H98.2952C98.3146 12.573 98.3367 12.5741 98.3594 12.573C98.3825 12.572 98.4067 12.5694 98.4315 12.5646C98.4641 12.5594 98.4967 12.5515 98.5283 12.5404C98.5594 12.5289 98.5862 12.5121 98.6078 12.491C98.6357 12.4632 98.6578 12.4311 98.6736 12.3954C98.6889 12.3591 98.6973 12.3213 98.6973 12.2818C98.6973 12.2251 98.6841 12.1751 98.6573 12.132C98.631 12.0895 98.5983 12.0579 98.5604 12.0374C98.5241 12.0175 98.4857 12.0043 98.4462 11.997C98.4067 11.9907 98.3636 11.987 98.3173 11.987H97.7567ZM97.5215 13.5654V11.7915H98.3073C98.3562 11.793 98.4052 11.7951 98.4525 11.7978C98.4999 11.8004 98.5462 11.8072 98.5925 11.8188C98.6041 11.8225 98.6157 11.8251 98.6273 11.8288C98.6389 11.8319 98.6504 11.8361 98.662 11.8414C98.7531 11.8761 98.822 11.9349 98.8694 12.018C98.9162 12.101 98.9399 12.1893 98.9399 12.2818C98.9399 12.4232 98.8946 12.5336 98.8046 12.6119C98.7146 12.6902 98.5931 12.7396 98.4415 12.7591V12.7617C98.4857 12.7849 98.5357 12.8174 98.5899 12.8605C98.6446 12.9036 98.7067 12.9788 98.7757 13.0855L99.0857 13.5654H98.791L98.5578 13.1985C98.482 13.0818 98.4189 12.9935 98.3678 12.9362C98.3178 12.8779 98.2704 12.8385 98.2257 12.8169C98.1957 12.8022 98.1652 12.7927 98.1341 12.7901C98.1025 12.7864 98.0667 12.7849 98.0273 12.7849H97.7573V13.5654H97.5215Z" fill="#12100C"/>
<path fill-rule="evenodd" clip-rule="evenodd" d="M32.9828 28.6655H95.8728V29.9075C90.2796 29.9075 33.7222 29.8918 33.7122 29.8839C33.2559 29.5291 33.0928 29.1044 32.9754 28.6724C32.9749 28.6692 32.9785 28.6655 32.9828 28.6655Z" fill="#E3000F"/>
<path fill-rule="evenodd" clip-rule="evenodd" d="M32.9828 28.6655H95.8728V29.9075C90.2796 29.9075 33.7222 29.8918 33.7122 29.8839C33.2559 29.5291 33.0928 29.1044 32.9754 28.6724C32.9749 28.6692 32.9785 28.6655 32.9828 28.6655Z" fill="#E3000F"/>
</g>
<defs>
<clipPath id="clip0_556_935">
<rect width="100" height="39" fill="white"/>
</clipPath>
</defs>
</svg>
