<svg width="543" height="218" viewBox="0 0 543 218" fill="none" xmlns="http://www.w3.org/2000/svg">
<path fill-rule="evenodd" clip-rule="evenodd" d="M219.424 217.639C160.295 167.396 138.867 72.8364 128.005 0C123.118 11.3234 118.298 22.6498 113.277 33.9145C101.89 59.587 90.3155 82.178 73.9796 105.751C57.0061 101.796 39.2371 105.113 29.5094 115.725C41.7636 111.256 55.0605 110.426 68.1251 113.411C50.4485 135.061 29.5154 152.195 4.87301 165.65C-4.05915 172.26 0.219231 183.139 10.1793 184.245C16.2274 184.245 19.9457 182.051 24.6441 178.482C45.1124 160.998 63.6381 139.154 78.3801 116.675C109.166 131.256 123.029 146.796 143.131 173.377C165.384 202.513 178.979 220.838 219.424 217.639Z" fill="white"/>
<path fill-rule="evenodd" clip-rule="evenodd" d="M114.955 52.1685C116.236 80.9461 120.866 108.595 137.169 149.398C126.792 136.555 106.529 118.054 83.728 109.044C95.8243 92.6048 107.822 68.076 114.955 52.1685Z" fill="#E3000F"/>
<path fill-rule="evenodd" clip-rule="evenodd" d="M326.803 24.6639L327.73 24.7933H328.659L329.589 24.9226L330.519 25.055L331.445 25.3166L332.375 25.5783L333.173 25.84L334.1 26.1017L334.895 26.4957L335.691 26.8868L336.489 27.4131L337.285 27.8042L338.083 28.3276L338.745 28.9833L339.409 29.5067L340.073 30.033L340.735 30.6858L341.268 31.3386L341.798 32.1266L342.329 32.7823L342.859 33.5674L343.39 34.3525L343.655 35.1405L344.054 35.9256L344.45 36.7107L344.715 37.6281L344.983 38.4131L345.249 39.3305L345.38 40.2479L345.514 41.1624V42.0828L345.645 42.9972L345.514 43.9146V44.832L345.38 45.7494L345.249 46.6639L344.983 47.5813L344.715 48.4987L344.45 49.2838L344.054 50.0718L343.655 50.9863L343.39 51.7743L342.859 52.427L342.329 53.2121L341.798 54.0002L341.268 54.6529L340.735 55.3086L340.073 55.9643L339.409 56.4877L338.745 57.1434L338.083 57.6668L337.285 58.1902L336.489 58.5842L335.691 59.1076L334.895 59.4987L334.1 59.8927L333.173 60.1544L332.375 60.5484L331.445 60.6778L330.519 60.9424L329.589 61.0718L328.659 61.2041L327.73 61.3335H326.803H325.74L324.813 61.2041L323.881 61.0718L322.954 60.9424L322.024 60.6778L321.095 60.5484L320.168 60.1544L319.37 59.8927L318.571 59.4987L317.779 59.1076L316.98 58.5842L316.185 58.1902L315.389 57.6668L314.725 57.1434L314.064 56.4877L313.399 55.9643L312.735 55.3086L312.204 54.6529L311.54 54.0002L311.01 53.2121L310.61 52.427L310.08 51.7743L309.684 50.9863L309.285 50.0718L309.019 49.2838L308.62 48.4987L308.489 47.5813L308.221 46.6639L308.09 45.7494L307.959 44.832L307.825 43.9146V42.9972V42.0828L307.959 41.1624L308.09 40.2479L308.221 39.3305L308.489 38.4131L308.62 37.6281L309.019 36.7107L309.285 35.9256L309.684 35.1405L310.08 34.3525L310.61 33.5674L311.01 32.7823L311.54 32.1266L312.204 31.3386L312.735 30.6858L313.399 30.033L314.064 29.5067L314.725 28.9833L315.389 28.3276L316.185 27.8042L316.98 27.4131L317.779 26.8868L318.571 26.4957L319.37 26.1017L320.168 25.84L321.095 25.5783L322.024 25.3166L322.954 25.055L323.881 24.9226L324.813 24.7933H325.74L326.803 24.6639Z" fill="#D40E14"/>
<path fill-rule="evenodd" clip-rule="evenodd" d="M219.31 97.9384C222.662 97.9384 223.491 107.165 223.517 109.259C223.55 111.726 223.088 121.223 219.045 121.223C215.282 121.223 214.436 112.052 214.442 109.341C214.451 106.551 214.934 97.9384 219.31 97.9384ZM218.128 132.908C202.307 143.338 174.805 132.838 173.094 111.805C172.448 103.878 175.502 95.7448 182.286 89.4789C200.958 74.2388 217.708 87.8587 221.569 85.9651L221.965 85.8357L222.099 85.577L222.364 85.3153L222.498 85.0565L222.63 84.7978L222.761 84.4067V84.0186L222.895 83.6275V83.1071L223.026 82.5866V82.0662V79.7256L222.895 76.7323V49.1544C222.895 43.55 223.163 39.7951 217.985 36.4048C223.497 20.1798 260.715 19.5858 260.715 42.1298V96.0683C260.715 101.443 259.869 113.284 262.732 118.086C267.63 126.298 264.04 135.467 253.594 136.963C241.998 138.622 228.681 125.954 218.128 132.908Z" fill="white"/>
<path fill-rule="evenodd" clip-rule="evenodd" d="M305.703 97.8855C311.17 97.8855 312.106 103.707 312.207 107.909V137.11L345.913 136.846V97.8855C343.127 77.0235 302.557 82.1721 305.703 97.8855Z" fill="white"/>
<path fill-rule="evenodd" clip-rule="evenodd" d="M452.741 94.1543C478.239 72.1161 482.07 92.9723 498.394 92.9723C503.519 92.9723 508.292 84.7539 522.533 84.1217C530.807 83.7541 541.923 89.9495 542.718 100.829V136.716H506.355V114.002C506.355 107.386 506.281 104.634 500.515 103.487C495.12 103.919 494.676 109.559 494.676 113.899V136.975H456.588V104.981C456.588 101.091 455.622 96.9977 452.741 94.1543Z" fill="white"/>
<path fill-rule="evenodd" clip-rule="evenodd" d="M354.672 94.1543C380.17 72.1161 384.001 92.9723 400.325 92.9723C405.45 92.9723 410.223 84.7539 424.464 84.1217C432.738 83.7541 443.854 89.9495 444.649 100.829V136.716H408.286V114.002C408.286 107.386 408.212 104.634 402.447 103.487C397.051 103.919 396.607 109.559 396.607 113.899V136.975H358.522V104.981C358.519 101.091 357.553 96.9977 354.672 94.1543Z" fill="white"/>
<path fill-rule="evenodd" clip-rule="evenodd" d="M186.707 160.275H542.715V167.223C511.053 167.223 190.893 167.135 190.836 167.091C188.253 165.106 187.33 162.73 186.665 160.313C186.662 160.295 186.683 160.275 186.707 160.275Z" fill="#E3000F"/>
<path fill-rule="evenodd" clip-rule="evenodd" d="M186.707 160.275H542.715V167.223C511.053 167.223 190.893 167.135 190.836 167.091C188.253 165.106 187.33 162.73 186.665 160.313C186.662 160.295 186.683 160.275 186.707 160.275Z" fill="#E3000F"/>
</svg>
