<svg width="1440" height="868" viewBox="0 0 1440 868" fill="none" xmlns="http://www.w3.org/2000/svg">
<path fill-rule="evenodd" clip-rule="evenodd" d="M1440 0H0V868H1440V0ZM565.005 349C575.867 421.836 597.295 516.396 656.424 566.639C616.351 569.809 602.636 551.849 580.743 523.179L580.131 522.377C560.029 495.796 546.166 480.256 515.38 465.675C500.638 488.154 482.112 509.998 461.644 527.482C456.946 531.051 453.227 533.245 447.179 533.245C437.219 532.139 432.941 521.26 441.873 514.65C466.515 501.195 487.448 484.061 505.125 462.411C492.061 459.426 478.764 460.256 466.509 464.725C476.237 454.113 494.006 450.796 510.98 454.751C527.315 431.178 538.89 408.587 550.277 382.914C554.153 374.218 557.91 365.485 561.67 356.745L561.687 356.704C562.792 354.136 563.896 351.568 565.005 349ZM764.73 373.793L763.803 373.664L762.74 373.793H761.813L760.88 373.923L759.954 374.055L759.024 374.317L758.095 374.578L757.168 374.84L756.37 375.102L755.571 375.496L754.779 375.887L753.98 376.413L753.185 376.804L752.389 377.328L751.725 377.983L751.063 378.507L750.399 379.033L749.735 379.686L749.204 380.339L748.54 381.127L748.01 381.782L747.61 382.567L747.08 383.352L746.684 384.14L746.284 384.926L746.019 385.711L745.62 386.628L745.489 387.413L745.221 388.331L745.09 389.248L744.959 390.162L744.825 391.083V391.997V392.915L744.959 393.832L745.09 394.749L745.221 395.664L745.489 396.581L745.62 397.499L746.019 398.284L746.284 399.072L746.684 399.986L747.08 400.774L747.61 401.427L748.01 402.212L748.54 403L749.204 403.653L749.735 404.309L750.399 404.964L751.063 405.488L751.725 406.143L752.389 406.667L753.185 407.19L753.98 407.584L754.779 408.108L755.571 408.499L756.37 408.893L757.168 409.154L758.095 409.548L759.024 409.678L759.954 409.942L760.88 410.072L761.813 410.204L762.74 410.333H763.803H764.73L765.659 410.204L766.589 410.072L767.518 409.942L768.445 409.678L769.375 409.548L770.173 409.154L771.1 408.893L771.895 408.499L772.691 408.108L773.489 407.584L774.285 407.19L775.083 406.667L775.744 406.143L776.409 405.488L777.073 404.964L777.735 404.309L778.268 403.653L778.798 403L779.329 402.212L779.859 401.427L780.389 400.774L780.654 399.986L781.054 399.072L781.45 398.284L781.715 397.499L781.983 396.581L782.248 395.664L782.38 394.749L782.514 393.832V392.915L782.645 391.997L782.514 391.083V390.162L782.38 389.248L782.248 388.331L781.983 387.413L781.715 386.628L781.45 385.711L781.054 384.926L780.654 384.14L780.389 383.352L779.859 382.567L779.329 381.782L778.798 381.127L778.268 380.339L777.735 379.686L777.073 379.033L776.409 378.507L775.744 377.983L775.083 377.328L774.285 376.804L773.489 376.413L772.691 375.887L771.895 375.496L771.1 375.102L770.173 374.84L769.375 374.578L768.445 374.317L767.518 374.055L766.589 373.923L765.659 373.793H764.73ZM656.31 446.938C659.662 446.938 660.49 456.165 660.517 458.259C660.55 460.726 660.088 470.223 656.045 470.223C652.282 470.223 651.436 461.052 651.442 458.341C651.451 455.551 651.934 446.938 656.31 446.938ZM655.128 481.908C639.307 492.338 611.805 481.838 610.094 460.805C609.448 452.878 612.502 444.745 619.286 438.479C632.773 427.47 645.258 431.52 652.607 433.904C655.431 434.821 657.497 435.491 658.569 434.965L658.965 434.836L659.099 434.577L659.364 434.315L659.498 434.057L659.629 433.798L659.76 433.407V433.019L659.895 432.628V432.107L660.026 431.587V431.066V428.726L659.895 425.732V398.154C659.895 397.887 659.895 397.625 659.896 397.366C659.908 392.193 659.916 388.634 654.985 385.405C660.496 369.18 697.715 368.586 697.715 391.13V445.068C697.715 445.956 697.692 447.019 697.666 448.198V448.2V448.203V448.206V448.208V448.209C697.536 454.172 697.343 463.079 699.732 467.086C704.63 475.298 701.04 484.467 690.594 485.963C685.679 486.666 680.454 484.795 675.261 482.935C668.204 480.408 661.207 477.902 655.128 481.908ZM749.207 456.909C749.106 452.708 748.17 446.886 742.703 446.886C739.557 431.172 780.127 426.023 782.913 446.886V485.846L749.207 486.11V456.909ZM889.741 443.154C906.664 428.527 914.043 432.796 921.865 437.321C925.828 439.614 929.905 441.972 935.394 441.972C937.359 441.972 939.273 440.763 941.689 439.237C945.572 436.784 950.753 433.511 959.533 433.122C967.807 432.754 978.923 438.95 979.718 449.829V485.716H943.355V463.002C943.355 456.386 943.28 453.634 937.515 452.487C932.12 452.919 931.676 458.559 931.676 462.899V485.975H893.588V453.981C893.588 450.091 892.622 445.998 889.741 443.154ZM823.796 437.321C815.974 432.796 808.595 428.527 791.672 443.154C794.553 445.998 795.518 450.091 795.521 453.981V485.975H833.607V462.899C833.607 458.559 834.051 452.919 839.446 452.487C845.211 453.634 845.286 456.386 845.286 463.002V485.716H881.649V449.829C880.854 438.95 869.738 432.754 861.464 433.122C852.684 433.511 847.503 436.784 843.62 439.237C841.204 440.763 839.29 441.972 837.325 441.972C831.836 441.972 827.759 439.614 823.796 437.321ZM623.665 509.313C623.662 509.295 623.683 509.275 623.707 509.275H979.715V516.223C948.054 516.223 627.893 516.135 627.837 516.091C625.253 514.106 624.33 511.73 623.665 509.313Z" fill="#121212"/>
</svg>
