<svg width="113" height="15" viewBox="0 0 113 15" fill="none" xmlns="http://www.w3.org/2000/svg">
<path d="M0.738647 1.04796H6.05168V5.60863H11.0752V1.04796H16.389V14.5247H11.0752V9.30963H6.05168V14.5247H0.738647V1.04796ZM23.9217 1.04796H29.3029L35.0867 14.5247H29.8184L29.1693 12.7313H23.9217L23.2935 14.5247H18.1375L23.9217 1.04796ZM24.9092 9.92581H28.2492L26.5449 5.10435L24.9092 9.92581ZM34.1008 1.04796H39.46L42.3073 10.001L45.2439 1.04796H50.58L44.9748 14.5247H39.6394L34.1008 1.04796ZM52.7555 1.04796H65.9385V4.18827H58.0689V6.13262H64.705V9.27203H58.0689V11.3847H66.2534V14.5247H52.7555V1.04796ZM68.9655 1.04796H74.2797V11.3847H81.543V14.5247H68.9655V1.04796ZM83.9418 1.04796H89.2556V11.3847H96.5208V14.5247H83.9422L83.9418 1.04796ZM107.193 4.95395C107.059 4.18221 106.334 3.79619 105.018 3.79619C103.971 3.79619 103.427 4.03878 103.381 4.52517C103.367 4.82446 103.541 5.07251 103.908 5.27235C104.275 5.47157 104.764 5.63683 105.377 5.76813C105.989 5.89944 106.581 6.02073 107.148 6.13262C109.046 6.50651 110.444 7.0114 111.341 7.64577C112.237 8.28136 112.679 9.16074 112.664 10.2818C112.664 11.378 112.312 12.2725 111.61 12.9645C110.907 13.6553 109.984 14.1508 108.842 14.4504C107.698 14.7494 106.469 14.8983 105.152 14.8983C103.18 14.8983 101.509 14.4777 100.141 13.6368C98.7731 12.7959 98.0453 11.7031 97.9556 10.357H103.045C103.165 10.8922 103.475 11.2667 103.976 11.4781C104.476 11.6897 104.996 11.7959 105.534 11.7959C106.834 11.7464 107.522 11.4405 107.597 10.8795C107.656 10.4935 107.422 10.1972 106.891 9.99252C106.36 9.78632 105.541 9.57223 104.434 9.34723C103.045 9.06037 101.938 8.76714 101.117 8.46845C100.304 8.17554 99.6035 7.7141 99.0876 7.13179C98.5566 6.54048 98.2988 5.75904 98.3144 4.78595C98.3446 3.57695 98.9824 2.59295 100.231 1.83304C101.479 1.07222 103.187 0.692871 105.355 0.692871C106.505 0.692871 107.562 0.827507 108.526 1.09405C109.492 1.36242 110.309 1.81818 110.983 2.45922C111.655 3.10117 112.073 3.93234 112.237 4.95395H107.193Z" fill="#ED1C24"/>
</svg>
