<svg width="48" height="37" viewBox="0 0 48 37" fill="none" xmlns="http://www.w3.org/2000/svg">
<path d="M47.176 18.6872C47.1503 14.4929 45.4558 10.3355 42.4034 6.98048C39.9339 4.26743 36.7324 2.19087 33.0305 0.874217C32.7455 0.783853 31.7804 0.573103 31.5352 0.612524C30.6219 0.758684 29.969 1.44764 29.7707 2.33885C29.7215 2.55718 29.7007 2.78855 29.7101 3.02598C29.6746 3.4778 29.642 3.95146 29.611 4.46817C29.6004 4.55429 29.5996 4.68559 29.5921 4.84176C29.5641 5.42458 29.5224 6.30487 29.4494 6.64692C28.8033 9.62319 25.0595 11.5075 21.8155 11.6103C19.6015 11.6788 17.4275 11.7725 15.3554 11.8862C14.2056 11.9514 13.0652 12.0233 11.9654 12.1009C11.4355 12.1394 10.903 12.1789 10.3708 12.2222L10.2478 12.2322C9.96399 12.2556 9.66953 12.2798 9.3641 12.2798C9.15973 12.2798 8.97049 12.2698 8.79223 12.2483C7.54629 12.1003 6.56453 11.4848 6.10014 10.5587C5.89235 10.1472 5.79206 9.72083 5.79206 9.25172C5.79206 8.64828 5.96767 8.06819 6.11982 7.63093C6.40254 6.82917 6.79275 5.82182 7.34494 4.84873C5.45887 6.38366 3.89981 8.15605 2.72982 10.0953C1.16331 12.6938 0.298497 15.5982 0.229615 18.4974V18.8819C0.228479 23.9723 2.57957 28.7856 6.75641 32.3971C6.20346 31.3319 5.83596 30.2184 5.57936 29.3396C5.4204 28.8014 5.26749 28.2252 5.26749 27.6242C5.26749 27.1527 5.36022 26.7121 5.55211 26.2757C5.99038 25.2826 6.89607 24.5979 8.1034 24.3453C8.43551 24.2761 8.7776 24.2424 9.12075 24.2452C9.31907 24.2452 9.53101 24.2543 9.76794 24.2734C11.5081 24.4096 13.2508 24.5242 14.9954 24.617C17.1531 24.7341 19.4259 24.8278 21.7508 24.8972C23.5486 24.9506 25.4163 25.5382 26.8739 26.5089C28.415 27.5347 29.3971 28.8966 29.6424 30.347C29.6935 30.6505 29.7435 31.5199 29.7809 32.1536C29.7934 32.362 29.8017 32.5342 29.8093 32.6328C29.8615 33.3617 29.9145 34.0031 29.9721 34.5923V34.5956C29.9959 34.8533 30.0213 35.089 30.0451 35.3088C30.2476 36.1315 30.8505 36.7677 31.7051 36.9266C31.9965 36.9818 32.2925 36.9724 32.5816 36.9147C32.8174 36.8345 33.0519 36.7517 33.2848 36.6664C36.9409 35.3073 40.0944 33.2071 42.5204 30.4895C45.5247 27.1193 47.1794 22.9616 47.1794 18.7867V18.6872H47.176Z" fill="#ED1C24"/>
</svg>
