<svg width="193" height="58" viewBox="0 0 193 58" fill="none" xmlns="http://www.w3.org/2000/svg">
<g clip-path="url(#clip0_1_1549)">
<path d="M134.294 13.8392C138.059 0.315335 138.059 0.315337 138.059 0.315337C136.645 1.09723 133.693 0.970333 132.452 0.98041C87.298 1.56112 87.298 1.56112 87.298 1.56112C90.5509 3.18486 91.3641 5.44099 90.2516 9.76209C80.123 46.507 80.123 46.507 80.123 46.507C78.0997 53.5923 76.3578 56.7148 73.3615 56.7443C70.8717 56.7868 69.6548 55.4338 67.4125 52.0573C52.0728 24.6225 52.0728 24.6225 52.0728 24.6225C84.6082 1.62317 84.6082 1.62317 84.6082 1.62317C55.8904 1.98172 55.8904 1.98172 55.8904 1.98172C59.8772 4.1828 60.3742 7.46114 56.1194 10.4519C34.0324 27.5707 34.0324 27.5707 34.0324 27.5707C39.0133 9.87316 39.0134 9.87317 39.0134 9.87317C40.3837 5.49969 43.586 3.21754 46.4402 2.06935C15.4938 2.49103 15.4938 2.49103 15.4938 2.49103C18.7659 4.04772 19.6116 6.36042 18.5315 10.7381C8.33853 47.5382 8.33853 47.5382 8.33853 47.5382C7.25986 51.3155 6.12184 55.726 -0.00209442 58.2015C30.6314 57.7697 30.6314 57.7697 30.6314 57.7697C26.9285 55.5952 27.0067 52.6843 27.992 48.9785C32.5075 33.081 32.5075 33.081 32.5075 33.081C44.6325 57.6526 44.6325 57.6526 44.6325 57.6526C58.7976 57.3863 58.7976 57.3863 58.7976 57.3863C102.364 56.749 102.364 56.749 102.364 56.749C99.0272 53.9738 98.9659 50.7859 100.332 46.1711C104.069 32.8321 104.069 32.8321 104.069 32.8321C113.977 32.6725 113.977 32.6725 113.977 32.6725C118.66 32.6056 120.34 33.5277 122.371 35.5995C125.96 22.4378 125.96 22.4378 125.96 22.4378C124.553 23.1974 121.498 23.0914 120.388 23.0641C106.742 23.2986 106.742 23.2986 106.742 23.2986C110.239 10.7135 110.239 10.7135 110.239 10.7135C126.104 10.5336 126.104 10.5336 126.104 10.5336C130.665 10.5548 132.494 11.6361 134.288 13.8615L134.294 13.8392Z" fill="#EE1832"/>
<path d="M170.243 48.8545C157.661 48.93 150.612 40.2431 150.651 30.6843C150.683 20.0446 159.481 9.1902 174.075 8.94784C178.656 8.95255 183.578 9.55019 189.874 12.2118C193.034 1.14695 193.034 1.14695 193.034 1.14695C188.919 0.185787 183.541 -0.340069 177.154 -0.219723C147.918 0.180302 129.042 17.1161 129.028 33.6361C128.991 46.0734 139.11 58.4448 162.727 58.1035C169.685 57.941 176.535 57.5585 182.252 56.3028C185.227 45.885 185.227 45.885 185.227 45.885C180.657 47.37 174.856 48.7477 170.243 48.8545Z" fill="#EE1832"/>
<path d="M9.88749 49.1921C20.3985 11.0693 20.3985 11.0693 20.3985 11.0693C21.7411 6.48746 21.296 4.93782 19.9981 3.281C22.5096 3.85259 24.0709 5.67483 22.5407 11.0895C12.0365 49.3573 12.0365 49.3573 12.0365 49.3573C10.7509 53.9065 9.02241 55.5468 5.5936 55.5189C7.78926 54.3366 9.20831 52.0177 9.90969 49.198L9.88749 49.1921Z" fill="white"/>
<path d="M81.8444 49.0048C92.3683 10.8374 92.3683 10.8374 92.3683 10.8374C93.6858 6.34434 93.1962 4.78291 91.92 2.96484C94.4509 3.63699 95.9713 5.51991 94.4536 10.8902C83.9427 49.1804 83.9427 49.1804 83.9427 49.1804C82.6889 53.7858 81.3373 55.3592 77.9432 55.2928C80.0603 54.3043 80.8597 52.4888 81.8444 49.0048Z" fill="white"/>
<path d="M111.647 6.89854C126.264 6.73821 126.264 6.73821 126.264 6.73821C130.545 6.68181 134.1 7.54686 133.99 10.9287C132.433 9.55041 130.69 8.65521 125.721 8.82022C110.984 8.97316 110.984 8.97316 110.984 8.97316L111.647 6.89854Z" fill="white"/>
<path d="M104.921 30.8111C105.523 28.6964 105.523 28.6964 105.523 28.6964C114.235 28.648 114.235 28.648 114.235 28.648C118.483 28.5347 122.041 29.473 121.973 32.7926C120.433 31.4431 118.667 30.5421 113.698 30.7071C104.921 30.8111 104.921 30.8111 104.921 30.8111Z" fill="white"/>
<path d="M131.644 33.4888C131.736 15.1822 152.542 4.83554 165.614 3.33501C154.283 6.37149 134.216 15.4028 134.043 33.4005C133.964 50.7281 152.802 55.4155 165.929 56.0141C151.38 57.3421 131.526 51.8846 131.644 33.4888Z" fill="white"/>
<path d="M51.7599 54.9727C48.8431 54.8746 46.9675 51.4629 46.9675 51.4629C47.0744 51.8498 47.0744 51.8498 47.0744 51.8498C36.5199 30.5353 36.5199 30.5353 36.5199 30.5353C59.3946 12.9506 59.3946 12.9506 59.3946 12.9506C63.9865 9.54335 65.7244 4.54769 60.9859 2.96543C62.635 5.64779 61.6446 8.78333 57.7178 11.7199C33.9223 29.995 33.9223 29.995 33.9223 29.995C46.2734 55.083 46.2734 55.083 46.2734 55.083C48.7377 54.9903 48.7377 54.9903 48.7377 54.9903L51.7599 54.9727Z" fill="white"/>
</g>
<defs>
<clipPath id="clip0_1_1549">
<rect width="193" height="58" fill="white"/>
</clipPath>
</defs>
</svg>
