<svg width="222" height="37" viewBox="0 0 222 37" fill="none" xmlns="http://www.w3.org/2000/svg">
<g clip-path="url(#clip0_1_1581)">
<path d="M33.8764 9.3383L33.6767 14.3372L16.9363 28.5091C23.9291 28.5091 28.3631 28.4559 30.92 28.3453C30.179 31.0348 29.5763 33.2336 28.9693 36.53C25.6065 36.3088 20.3639 36.2535 15.1187 36.2535C9.27168 36.2535 4.16134 36.3081 0.0601196 36.53L0.196798 31.4744L16.9363 17.3592C9.60805 17.3592 6.91798 17.4131 3.8942 17.4684C4.56428 14.9413 5.03555 12.1412 5.50594 9.3383C10.8168 9.50281 12.9007 9.55673 19.8261 9.55673C26.2135 9.55742 29.8417 9.50281 33.8764 9.3383ZM52.9039 7.85358C42.0096 7.85358 33.6767 15.4341 33.6767 24.5008C33.6767 31.3113 38.7178 36.53 48.5329 36.53C59.4919 36.53 67.761 28.948 67.761 19.8282C67.7618 13.075 62.8521 7.85358 52.9039 7.85358ZM49.6085 29.2439C47.1874 29.2439 45.7771 27.5387 45.7771 24.1884C45.7771 19.1895 48.3988 15.1804 51.6276 15.1804C53.9787 15.1804 55.3907 16.8297 55.3907 20.2332C55.3898 25.1768 52.8373 29.2439 49.6085 29.2439ZM206.886 7.47756C195.852 7.47756 187.407 15.1583 187.407 24.339C187.407 31.2422 192.515 36.53 202.459 36.53C213.561 36.53 221.939 28.8485 221.939 19.6104C221.94 12.766 216.97 7.47756 206.886 7.47756ZM203.34 29.2149C200.918 29.2149 199.509 27.5096 199.509 24.1593C199.509 19.1605 202.131 15.1521 205.359 15.1521C207.709 15.1521 209.124 16.8 209.124 20.2042C209.122 25.1498 206.567 29.2149 203.34 29.2149ZM124.299 17.7428C125.175 13.075 124.704 8.84409 118.05 8.84409C113.208 8.84409 107.965 12.0306 104.267 17.3592C105.075 12.963 104.603 8.84409 98.0147 8.84409C93.0402 8.84409 87.6618 12.1944 83.9626 17.7428C84.9043 14.1174 84.7037 9.99634 84.4339 9.11781C80.6025 9.61272 77.2423 9.88644 72.5349 9.99634C72.6698 12.5241 72.4675 15.8177 71.8622 18.9517L70.3161 27.1903C69.7108 30.4328 69.0381 34.1681 68.3654 36.5307H80.8705C80.9388 35.1005 81.4101 32.8493 81.7456 30.8717L82.8213 25.2148C83.6946 21.532 87.4585 17.1946 90.3492 17.1946C92.0302 17.1946 91.9645 18.4575 91.4932 20.8194L90.2826 27.1896C89.6756 30.4321 89.0055 34.1674 88.3319 36.53H100.971C101.039 35.0999 101.442 32.8486 101.778 30.871L102.853 25.2141C103.728 21.5313 107.494 17.194 110.383 17.194C112.066 17.194 111.999 18.4008 111.728 20.0501L108.708 36.5293H120.243L124.299 17.7428ZM184.696 27.9057L183.351 34.3886C181.267 35.2671 177.367 36.5314 172.863 36.5314C165.198 36.5314 163.654 33.3449 164.862 26.5882L166.813 15.7113H163.041L164.106 8.67059L168.224 8.51576L169.771 3.40699L181.4 0L179.922 8.51507H187.923C187.655 9.3936 186.711 14.2293 186.446 15.7106H178.643L176.895 25.7636C176.424 28.3453 176.695 29.2798 178.978 29.2798C180.662 29.2785 183.147 28.5091 184.696 27.9057ZM140.583 31.4074C144.815 30.9989 147.728 27.8214 148.428 24.6508L148.546 23.8013C146.728 23.4847 144.099 23.2435 141.55 23.4861C139.123 23.7163 137.103 24.5022 136.016 25.6399C135.197 26.4569 134.786 27.4343 134.968 28.5997C135.244 30.345 137.723 31.679 140.583 31.4074ZM136.98 36.4284C131.006 37 127.072 35.1531 125.891 30.9526C125.15 28.3094 126.178 25.2984 127.977 23.502C130.387 21.1525 134.313 19.6443 139.105 19.1888C142.961 18.8162 146.211 19.0001 149.249 19.448L149.375 19.0423C149.462 18.3932 149.55 17.7455 149.429 16.97C149.114 14.9786 147.097 13.7925 142.118 14.2694C138.759 14.5908 135.563 15.5357 133.081 16.6113L130.667 10.9302C134.031 9.42609 138.271 8.28144 143.123 7.81763C152.391 6.93219 158.904 9.23393 159.738 14.5259C159.959 15.9332 159.986 17.4248 159.758 18.7782C158.567 25.3213 157.805 30.2448 157.47 33.5446C157.416 34.0554 157.421 34.9333 157.479 36.1775L145.978 36.1692C146.223 35.6535 146.442 34.954 146.637 34.0769C146.767 33.4997 146.859 32.7718 146.917 31.8899C144.486 34.4874 141.145 36.0302 136.98 36.4284Z" fill="#E23744"/>
</g>
<defs>
<clipPath id="clip0_1_1581">
<rect width="222" height="37" fill="white"/>
</clipPath>
</defs>
</svg>
