<svg width="96" height="37" viewBox="0 0 96 37" fill="none" xmlns="http://www.w3.org/2000/svg">
<g clip-path="url(#clip0_1_633)">
<path d="M91.5259 35.4477H92.0382V35.9528H91.5259V35.4477ZM89.756 35.9957C89.5741 35.9957 89.4189 35.9563 89.2906 35.879C89.1623 35.8007 89.0648 35.687 88.9976 35.5374C88.9304 35.3884 88.897 35.2088 88.897 34.9989V34.4589C88.897 34.2479 88.9298 34.0674 88.995 33.9183C89.0602 33.7687 89.1557 33.655 89.281 33.5767C89.4058 33.4995 89.5564 33.4601 89.7317 33.4601C89.8787 33.4601 90.0131 33.498 90.1349 33.5738C90.2567 33.6495 90.3552 33.7553 90.4305 33.8924L90.38 34.3925C90.38 34.2893 90.3613 34.2001 90.3229 34.1258C90.2845 34.0525 90.2289 33.9961 90.1561 33.9572C90.0844 33.9183 89.9965 33.8994 89.8924 33.8994C89.7307 33.8994 89.6064 33.9492 89.5175 34.0485C89.4291 34.1477 89.3851 34.2873 89.3851 34.4658V34.9994C89.3851 35.1774 89.4291 35.3145 89.5175 35.4123C89.6064 35.509 89.7307 35.5574 89.8924 35.5574C89.996 35.5574 90.0839 35.5374 90.1561 35.4966C90.2289 35.4562 90.2845 35.3983 90.3229 35.3235C90.3613 35.2477 90.38 35.1575 90.38 35.0518L90.4133 35.5684C90.3643 35.69 90.2834 35.7918 90.1708 35.873C90.0581 35.9548 89.9202 35.9957 89.756 35.9957ZM90.38 32.5201H90.8685V35.9533H90.38V32.5201ZM87.1791 33.5024H88.2988V33.9368H87.1791V33.5024ZM88.0168 35.9653C87.8157 35.9653 87.6692 35.9104 87.5752 35.8007C87.4823 35.691 87.4358 35.53 87.4358 35.3155V32.7894H87.9244V35.3205C87.9244 35.3804 87.936 35.4262 87.9592 35.4582C87.9835 35.4906 88.0189 35.5065 88.0643 35.5065H88.2988V35.9653H88.0168ZM84.8544 35.4951H86.8451V35.9528H84.8544V35.4951ZM84.6104 32.5201H85.0984V35.9533H84.6104V32.5201ZM81.5848 35.9887C81.4378 35.9887 81.3009 35.9743 81.1725 35.9458C81.0432 35.9174 80.9235 35.875 80.8123 35.8187C80.7006 35.7623 80.5976 35.691 80.5036 35.6058L80.7926 35.2547C80.9265 35.3554 81.0594 35.4312 81.1928 35.4811C81.3251 35.532 81.456 35.5569 81.5848 35.5569C81.7773 35.5569 81.9229 35.527 82.0194 35.4681C82.1159 35.4093 82.1639 35.3205 82.1639 35.2024C82.1639 35.1241 82.1376 35.0647 82.0845 35.0258C82.0325 34.9864 81.9668 34.9595 81.8885 34.946C81.8102 34.9331 81.7005 34.9211 81.5586 34.9096C81.5454 34.9096 81.5323 34.9096 81.5176 34.9086C81.503 34.9077 81.4899 34.9062 81.4767 34.9047C81.4701 34.9047 81.4646 34.9047 81.458 34.9037C81.4514 34.9027 81.4449 34.9022 81.4383 34.9022C81.2776 34.8902 81.1407 34.8668 81.029 34.8329C80.9179 34.7989 80.8249 34.7351 80.7506 34.6429C80.6764 34.5501 80.6395 34.4175 80.6395 34.2439C80.6395 34.0704 80.6754 33.9263 80.7471 33.8121C80.8184 33.6969 80.925 33.6107 81.0674 33.5533C81.2094 33.4965 81.3873 33.467 81.6015 33.467C81.7304 33.467 81.8536 33.479 81.9709 33.5024C82.0881 33.5259 82.2002 33.5613 82.3074 33.6072C82.4145 33.6535 82.517 33.7129 82.6161 33.7837L82.3215 34.1352C82.1972 34.056 82.0749 33.9976 81.9547 33.9582C81.8339 33.9198 81.7162 33.8994 81.602 33.8994C81.4353 33.8994 81.311 33.9278 81.2281 33.9831C81.1458 34.039 81.1038 34.1228 81.1038 34.2345C81.1038 34.3003 81.1276 34.3507 81.1751 34.3836C81.2216 34.4165 81.2812 34.4384 81.3529 34.4499C81.4247 34.4604 81.5267 34.4698 81.6591 34.4783C81.6692 34.4798 81.6788 34.4808 81.6884 34.4808C81.699 34.4808 81.7096 34.4818 81.7213 34.4833C81.7258 34.4833 81.7309 34.4833 81.7359 34.4833C81.74 34.4833 81.745 34.4843 81.7496 34.4858C81.9234 34.4963 82.0714 34.5197 82.1937 34.5541C82.3154 34.589 82.418 34.6573 82.5004 34.7596C82.5837 34.8618 82.6247 35.0094 82.6247 35.2029C82.6247 35.3794 82.5873 35.525 82.51 35.6412C82.4332 35.7564 82.3185 35.8436 82.1639 35.9025C82.0113 35.9598 81.8178 35.9887 81.5848 35.9887ZM79.0969 35.9887C78.8675 35.9887 78.671 35.9458 78.5083 35.8616C78.3456 35.7763 78.2218 35.6511 78.1364 35.4871C78.051 35.3225 78.0081 35.1246 78.0081 34.8917V34.6154C78.0081 34.3731 78.049 34.1657 78.1314 33.9941C78.2132 33.8226 78.3325 33.6919 78.4891 33.6027C78.6452 33.5134 78.8342 33.468 79.0535 33.468C79.2606 33.468 79.438 33.5194 79.585 33.6211C79.731 33.7234 79.8432 33.8715 79.9205 34.0649C79.9983 34.2584 80.0367 34.4913 80.0367 34.762V34.9226H78.3628V34.5352H79.5729C79.5582 34.3352 79.5062 34.1796 79.4163 34.0694C79.3263 33.9582 79.2056 33.9024 79.0535 33.9024C78.869 33.9024 78.725 33.9617 78.624 34.0819C78.5229 34.2011 78.4719 34.3701 78.4719 34.5895V34.9007C78.4719 35.1036 78.5265 35.2602 78.6346 35.3679C78.7432 35.4766 78.8973 35.5315 79.0969 35.5315C79.1954 35.5315 79.294 35.511 79.391 35.4721C79.488 35.4332 79.5754 35.3779 79.6522 35.3066L79.972 35.6232C79.8498 35.7394 79.7118 35.8297 79.5582 35.893C79.4056 35.9563 79.251 35.9887 79.0969 35.9887ZM76.6418 35.9887C76.416 35.9887 76.222 35.9468 76.0623 35.8641C75.9021 35.7803 75.7799 35.6591 75.695 35.4995C75.6111 35.341 75.5687 35.149 75.5687 34.9241V34.5207C75.5687 34.2983 75.6111 34.1088 75.695 33.9517C75.7799 33.7937 75.9026 33.6735 76.0623 33.5917C76.2225 33.5084 76.416 33.4675 76.6418 33.4675C76.7717 33.4675 76.8925 33.483 77.0066 33.5134C77.1213 33.5438 77.2234 33.5882 77.3144 33.6471C77.4048 33.7054 77.4811 33.7762 77.5412 33.859L77.189 34.1711C77.1188 34.0919 77.0375 34.0315 76.9425 33.9891C76.8485 33.9472 76.7505 33.9253 76.6484 33.9253C76.4605 33.9253 76.3144 33.9777 76.2109 34.0819C76.1073 34.1856 76.0557 34.3317 76.0557 34.5212V34.9246C76.0557 35.1181 76.1073 35.2672 76.2104 35.3724C76.3124 35.4781 76.4594 35.531 76.6489 35.531C76.7525 35.531 76.8515 35.5075 76.9455 35.4626C77.0405 35.4168 77.1213 35.3524 77.1896 35.2682L77.5417 35.6033C77.4796 35.6855 77.4028 35.7549 77.3123 35.8127C77.2209 35.87 77.1188 35.9134 77.0046 35.9434C76.8909 35.9733 76.7702 35.9887 76.6418 35.9887ZM74.4106 33.5024H74.8982V35.9533H74.4106V33.5024ZM74.4106 32.5201H74.8982V33.0018H74.4106V32.5201ZM73.4223 33.5024H73.9321L72.9989 35.9533H72.6306L71.6978 33.5024H72.2077L72.815 35.2522L73.4223 33.5024ZM71.2355 34.0834C71.1921 34.031 71.1375 33.9916 71.0723 33.9652C71.0072 33.9383 70.9319 33.9248 70.8455 33.9248C70.6909 33.9248 70.5711 33.9677 70.4852 34.0515C70.4003 34.1357 70.3569 34.2529 70.3569 34.402L70.3069 33.9298C70.3837 33.7837 70.4827 33.6695 70.6034 33.5887C70.7252 33.5074 70.8591 33.467 71.0051 33.467C71.1188 33.467 71.2214 33.483 71.3128 33.5154C71.4043 33.5478 71.4841 33.5952 71.5528 33.658L71.2355 34.0834ZM69.8693 33.5024H70.3569V35.9533H69.8693V33.5024ZM68.259 35.9887C68.0296 35.9887 67.8331 35.9458 67.6704 35.8616C67.5077 35.7763 67.3839 35.6511 67.2985 35.4871C67.2131 35.3225 67.1702 35.1246 67.1702 34.8917V34.6154C67.1702 34.3731 67.2111 34.1657 67.2935 33.9941C67.3753 33.8226 67.4946 33.6919 67.6512 33.6027C67.8073 33.5134 67.9958 33.468 68.2156 33.468C68.4232 33.468 68.6001 33.5194 68.7471 33.6211C68.8931 33.7234 69.0053 33.8715 69.0826 34.0649C69.1604 34.2584 69.1988 34.4913 69.1988 34.762V34.9226H67.5249V34.5352H68.735C68.7203 34.3352 68.6683 34.1796 68.5784 34.0694C68.4884 33.9582 68.3677 33.9024 68.2156 33.9024C68.0312 33.9024 67.8877 33.9617 67.7861 34.0819C67.685 34.2011 67.6345 34.3701 67.6345 34.5895V34.9007C67.6345 35.1036 67.6891 35.2602 67.7972 35.3679C67.9058 35.4766 68.06 35.5315 68.259 35.5315C68.3576 35.5315 68.4561 35.511 68.5531 35.4721C68.6501 35.4332 68.7375 35.3779 68.8143 35.3066L69.1341 35.6232C69.0119 35.7394 68.8739 35.8297 68.7203 35.893C68.5677 35.9563 68.4136 35.9887 68.259 35.9887ZM65.3194 35.9887C65.1522 35.9887 64.993 35.9728 64.8434 35.9414C64.6934 35.9099 64.5534 35.8631 64.4231 35.8002C64.2932 35.7364 64.1714 35.6586 64.0588 35.5644L64.3624 35.1959C64.4948 35.3091 64.6408 35.3943 64.8 35.4507C64.9592 35.507 65.1325 35.5355 65.3194 35.5355C65.571 35.5355 65.7661 35.4896 65.905 35.3978C66.0434 35.3061 66.1132 35.1754 66.1132 35.0069V35.0044C66.1132 34.8852 66.0824 34.79 66.0192 34.7202C65.9555 34.6498 65.8747 34.5985 65.7752 34.5646C65.6756 34.5307 65.5463 34.4993 65.3891 34.4708C65.3841 34.4693 65.3785 34.4683 65.3735 34.4683C65.3674 34.4683 65.3619 34.4673 65.3573 34.4658L65.3219 34.4594C65.0885 34.42 64.899 34.3751 64.7535 34.3257C64.6075 34.2759 64.4822 34.1856 64.3786 34.054C64.275 33.9228 64.2235 33.7358 64.2235 33.493V33.4905C64.2235 33.2786 64.2715 33.097 64.368 32.9465C64.4645 32.7969 64.6055 32.6812 64.7904 32.6034C64.9758 32.5246 65.1976 32.4852 65.4584 32.4852C65.5827 32.4852 65.7049 32.4987 65.8252 32.5256C65.9459 32.552 66.0642 32.5924 66.1819 32.6448C66.2986 32.6971 66.4138 32.7639 66.5275 32.8447L66.2496 33.2267C66.1172 33.131 65.9858 33.0591 65.8535 33.0108C65.7221 32.9634 65.5902 32.939 65.4584 32.939C65.2209 32.939 65.0355 32.9858 64.9041 33.0791C64.7727 33.1728 64.7075 33.3055 64.7075 33.4775V33.48C64.7075 33.5977 64.7409 33.6904 64.8086 33.7578C64.8763 33.8256 64.9612 33.8754 65.0627 33.9079C65.1638 33.9398 65.3043 33.9737 65.4851 34.0086C65.4917 34.0101 65.4973 34.0111 65.5028 34.0116C65.5084 34.0126 65.5144 34.0141 65.521 34.0156C65.5291 34.0171 65.5372 34.0186 65.5468 34.02C65.5564 34.021 65.565 34.0225 65.5731 34.024C65.7837 34.0669 65.9591 34.1178 66.1005 34.1756C66.2415 34.2335 66.3602 34.3277 66.4547 34.4574C66.5497 34.587 66.5967 34.7645 66.5967 34.9899V34.9939C66.5967 35.2034 66.5467 35.3824 66.4461 35.5315C66.3451 35.6806 66.1996 35.7933 66.0091 35.8715C65.8181 35.9498 65.5887 35.9887 65.3194 35.9887ZM61.0565 35.9957C60.8746 35.9957 60.7195 35.9563 60.5912 35.879C60.4628 35.8007 60.3653 35.687 60.2981 35.5374C60.2309 35.3884 60.1976 35.2088 60.1976 34.9989V34.4589C60.1976 34.2479 60.2299 34.0674 60.2956 33.9183C60.3608 33.7687 60.4562 33.655 60.5816 33.5767C60.7064 33.4995 60.8569 33.4601 61.0323 33.4601C61.1793 33.4601 61.3137 33.498 61.4355 33.5738C61.5572 33.6495 61.6557 33.7553 61.731 33.8924L61.6805 34.3925C61.6805 34.2893 61.6618 34.2001 61.6234 34.1258C61.585 34.0525 61.5294 33.9961 61.4567 33.9572C61.3849 33.9183 61.2965 33.8994 61.1929 33.8994C61.0312 33.8994 60.9069 33.9492 60.818 34.0485C60.7296 34.1477 60.6856 34.2873 60.6856 34.4658V34.9994C60.6856 35.1774 60.7296 35.3145 60.818 35.4123C60.9069 35.509 61.0312 35.5574 61.1929 35.5574C61.2965 35.5574 61.3844 35.5374 61.4567 35.4966C61.5294 35.4562 61.585 35.3983 61.6234 35.3235C61.6618 35.2477 61.6805 35.1575 61.6805 35.0518L61.7139 35.5684C61.6648 35.69 61.584 35.7918 61.4713 35.873C61.3592 35.9548 61.2207 35.9957 61.0565 35.9957ZM61.1015 36.9491C60.9155 36.9491 60.7478 36.9152 60.6008 36.8469C60.4532 36.7786 60.3385 36.6819 60.2572 36.5577L60.5871 36.2625C60.6513 36.3488 60.7276 36.4156 60.816 36.4634C60.9049 36.5103 60.9974 36.5343 61.0944 36.5343C61.2813 36.5343 61.4258 36.4834 61.5279 36.3822C61.63 36.2804 61.6805 36.1368 61.6805 35.9508V33.5024H62.1691V35.88C62.1691 36.1049 62.1277 36.2984 62.0433 36.4585C61.9599 36.619 61.8386 36.7412 61.6785 36.8245C61.5193 36.9082 61.3273 36.9491 61.1015 36.9491ZM59.04 34.4678C59.04 34.2943 58.9945 34.1607 58.9031 34.0664C58.8126 33.9722 58.6848 33.9243 58.5211 33.9243C58.3614 33.9243 58.2387 33.9662 58.1512 34.05C58.0648 34.1327 58.0209 34.2504 58.0209 34.4015L57.9709 33.9293C58.0477 33.7817 58.1472 33.6675 58.271 33.5867C58.3943 33.5069 58.5307 33.4665 58.6813 33.4665C58.9506 33.4665 59.1587 33.5538 59.3068 33.7273C59.4548 33.9014 59.5281 34.1472 59.5281 34.4648V35.9523H59.0405V34.4678H59.04ZM57.5328 33.5024H58.0204V35.9533H57.5328V33.5024ZM56.303 33.5024H56.7906V35.9533H56.303V33.5024ZM56.303 32.5201H56.7906V33.0018H56.303V32.5201ZM54.6402 35.9887C54.4931 35.9887 54.3557 35.9743 54.2279 35.9458C54.099 35.9174 53.9788 35.875 53.8676 35.8187C53.756 35.7623 53.6529 35.691 53.5589 35.6058L53.8479 35.2547C53.9818 35.3554 54.1147 35.4312 54.2481 35.4811C54.3805 35.532 54.5113 35.5569 54.6402 35.5569C54.8327 35.5569 54.9782 35.527 55.0747 35.4681C55.1712 35.4093 55.2192 35.3205 55.2192 35.2024C55.2192 35.1241 55.1929 35.0647 55.1399 35.0258C55.0878 34.9864 55.0221 34.9595 54.9438 34.946C54.8655 34.9331 54.7564 34.9211 54.6139 34.9096C54.6008 34.9096 54.5876 34.9096 54.573 34.9086C54.5583 34.9077 54.5452 34.9062 54.532 34.9047C54.5255 34.9047 54.5199 34.9047 54.5133 34.9037C54.5068 34.9027 54.5002 34.9022 54.4936 34.9022C54.333 34.8902 54.196 34.8668 54.0844 34.8329C53.9732 34.7989 53.8803 34.7351 53.806 34.6429C53.7317 34.5501 53.6948 34.4175 53.6948 34.2439C53.6948 34.0704 53.7307 33.9263 53.8024 33.8121C53.8737 33.6969 53.9803 33.6107 54.1228 33.5533C54.2648 33.4965 54.4426 33.467 54.6568 33.467C54.7857 33.467 54.909 33.479 55.0262 33.5024C55.1434 33.5259 55.2556 33.5613 55.3627 33.6072C55.4698 33.6535 55.5724 33.7129 55.6714 33.7837L55.3763 34.1352C55.252 34.056 55.1298 33.9976 55.0095 33.9582C54.8888 33.9198 54.771 33.8994 54.6568 33.8994C54.4901 33.8994 54.3658 33.9278 54.2824 33.9831C54.2001 34.039 54.1581 34.1228 54.1581 34.2345C54.1581 34.3003 54.1819 34.3507 54.2294 34.3836C54.2759 34.4165 54.3355 34.4384 54.4072 34.4499C54.479 34.4604 54.5816 34.4698 54.7134 34.4783C54.7235 34.4798 54.7331 34.4808 54.7427 34.4808C54.7533 34.4808 54.764 34.4818 54.7756 34.4833C54.7801 34.4833 54.7852 34.4833 54.7902 34.4833C54.7943 34.4833 54.7993 34.4843 54.8044 34.4858C54.9782 34.4963 55.1262 34.5197 55.2485 34.5541C55.3703 34.589 55.4728 34.6573 55.5557 34.7596C55.6391 34.8618 55.68 35.0094 55.68 35.2029C55.68 35.3794 55.6426 35.525 55.5653 35.6412C55.4885 35.7564 55.3738 35.8436 55.2192 35.9025C55.0666 35.9598 54.8731 35.9887 54.6402 35.9887ZM52.5327 33.5024H53.0203V35.9533H52.5327V33.5024ZM52.5327 32.5201H53.0203V33.0018H52.5327V32.5201ZM50.7426 33.5024H51.8622V33.9368H50.7426V33.5024ZM51.5803 35.9653C51.3792 35.9653 51.2322 35.9104 51.1387 35.8007C51.0457 35.691 50.9992 35.53 50.9992 35.3155V32.7894H51.4873V35.3205C51.4873 35.3804 51.4989 35.4262 51.5227 35.4582C51.5469 35.4906 51.5823 35.5065 51.6278 35.5065H51.8622V35.9653H51.5803ZM50.2095 34.0834C50.1661 34.031 50.1115 33.9916 50.0463 33.9652C49.9811 33.9383 49.9058 33.9248 49.8194 33.9248C49.6648 33.9248 49.5451 33.9677 49.4592 34.0515C49.3743 34.1357 49.3309 34.2529 49.3309 34.402L49.2808 33.9298C49.3576 33.7837 49.4567 33.6695 49.5774 33.5887C49.6992 33.5074 49.8331 33.467 49.9791 33.467C50.0928 33.467 50.1954 33.483 50.2868 33.5154C50.3783 33.5478 50.4581 33.5952 50.5268 33.658L50.2095 34.0834ZM48.8433 33.5024H49.3309V35.9533H48.8433V33.5024ZM47.233 35.9887C47.0036 35.9887 46.8071 35.9458 46.6444 35.8616C46.4817 35.7763 46.3579 35.6511 46.2725 35.4871C46.1866 35.3225 46.1442 35.1246 46.1442 34.8917V34.6154C46.1442 34.3731 46.1851 34.1657 46.2674 33.9941C46.3493 33.8226 46.4685 33.6919 46.6252 33.6027C46.7813 33.5134 46.9698 33.468 47.1896 33.468C47.3967 33.468 47.5741 33.5194 47.7211 33.6211C47.8671 33.7234 47.9793 33.8715 48.0566 34.0649C48.1344 34.2584 48.1728 34.4913 48.1728 34.762V34.9226H46.4989V34.5352H47.709C47.6943 34.3352 47.6423 34.1796 47.5523 34.0694C47.4624 33.9582 47.3416 33.9024 47.1896 33.9024C47.0051 33.9024 46.8611 33.9617 46.7601 34.0819C46.659 34.2011 46.6085 34.3701 46.6085 34.5895V34.9007C46.6085 35.1036 46.6631 35.2602 46.7712 35.3679C46.8798 35.4766 47.0339 35.5315 47.2335 35.5315C47.332 35.5315 47.4306 35.511 47.5276 35.4721C47.6246 35.4332 47.712 35.3779 47.7888 35.3066L48.1086 35.6232C47.9864 35.7394 47.8484 35.8297 47.6948 35.893C47.5417 35.9563 47.3876 35.9887 47.233 35.9887ZM45.2766 33.5024H45.7864L44.8532 35.9533H44.4849L43.5522 33.5024H44.062L44.6693 35.2522L45.2766 33.5024ZM41.9611 35.9957C41.7792 35.9957 41.6241 35.9563 41.4957 35.879C41.3674 35.8007 41.2699 35.687 41.2027 35.5374C41.136 35.3884 41.1021 35.2088 41.1021 34.9989V34.4589C41.1021 34.2479 41.1345 34.0674 41.2002 33.9183C41.2653 33.7687 41.3608 33.655 41.4861 33.5767C41.6109 33.4995 41.7615 33.4601 41.9368 33.4601C42.0839 33.4601 42.2183 33.498 42.34 33.5738C42.4618 33.6495 42.5608 33.7553 42.6356 33.8924L42.5851 34.3925C42.5851 34.2893 42.5664 34.2001 42.528 34.1258C42.4891 34.0525 42.434 33.9961 42.3613 33.9572C42.2895 33.9183 42.2011 33.8994 42.0975 33.8994C41.9358 33.8994 41.8115 33.9492 41.7226 34.0485C41.6342 34.1477 41.5902 34.2873 41.5902 34.4658V34.9994C41.5902 35.1774 41.6342 35.3145 41.7226 35.4123C41.8115 35.509 41.9358 35.5574 42.0975 35.5574C42.2011 35.5574 42.289 35.5374 42.3613 35.4966C42.434 35.4562 42.4896 35.3983 42.528 35.3235C42.5664 35.2477 42.5851 35.1575 42.5851 35.0518L42.6184 35.5684C42.5694 35.69 42.4886 35.7918 42.3759 35.873C42.2632 35.9548 42.1253 35.9957 41.9611 35.9957ZM42.5851 32.5201H43.0732V35.9533H42.5851V32.5201ZM38.3055 34.7421H40.1356V35.1999H38.3055V34.7421ZM38.9972 32.5201H39.413L40.6959 35.9533H40.1694L39.2049 33.1838L38.2413 35.9533H37.7149L38.9972 32.5201Z" fill="#F1F0F0"/>
<path fill-rule="evenodd" clip-rule="evenodd" d="M37.2116 36.9237C27.1842 28.4032 23.5503 12.3671 21.7081 0.0149536C20.8795 1.93526 20.062 3.85607 19.2106 5.76641C17.2795 10.1201 15.3165 13.9513 12.5462 17.949C9.6677 17.2783 6.65432 17.8408 5.00463 19.6404C7.08278 18.8825 9.33777 18.7418 11.5533 19.248C8.55562 22.9195 5.00564 25.8252 0.82661 28.107C-0.688169 29.228 0.0373885 31.073 1.72648 31.2605C2.75217 31.2605 3.38274 30.8885 4.17954 30.2831C7.65069 27.3182 10.7924 23.6137 13.2925 19.8015C18.5133 22.2743 20.8643 24.9097 24.2733 29.4175C28.0472 34.3586 30.3527 37.4662 37.2116 36.9237Z" fill="white"/>
<path fill-rule="evenodd" clip-rule="evenodd" d="M19.4951 8.86203C19.7123 13.7423 20.4975 18.4312 23.2623 25.351C21.5025 23.1729 18.0662 20.0353 14.1994 18.5075C16.2508 15.7195 18.2855 11.5597 19.4951 8.86203Z" fill="#E3000F"/>
<path fill-rule="evenodd" clip-rule="evenodd" d="M55.4218 4.19766L55.5789 4.2196H55.7366L55.8942 4.24154L56.0519 4.26398L56.209 4.30836L56.3666 4.35274L56.5021 4.39712L56.6592 4.4415L56.7941 4.50832L56.929 4.57464L57.0644 4.6639L57.1993 4.73022L57.3347 4.81898L57.4469 4.93018L57.5596 5.01894L57.6723 5.1082L57.7844 5.2189L57.8749 5.3296L57.9648 5.46324L58.0547 5.57444L58.1447 5.70758L58.2346 5.84072L58.2796 5.97436L58.3473 6.1075L58.4145 6.24064L58.4594 6.39622L58.5049 6.52936L58.5499 6.68494L58.5721 6.84052L58.5949 6.9956V7.15168L58.6171 7.30676L58.5949 7.46234V7.61792L58.5721 7.7735L58.5499 7.92858L58.5049 8.08416L58.4594 8.23974L58.4145 8.37288L58.3473 8.50652L58.2796 8.6616L58.2346 8.79524L58.1447 8.90594L58.0547 9.03908L57.9648 9.17272L57.8749 9.28342L57.7844 9.39462L57.6723 9.50582L57.5596 9.59458L57.4469 9.70578L57.3347 9.79454L57.1993 9.8833L57.0644 9.95012L56.929 10.0389L56.7941 10.1052L56.6592 10.172L56.5021 10.2164L56.3666 10.2832L56.209 10.3052L56.0519 10.35L55.8942 10.372L55.7366 10.3944L55.5789 10.4164H55.4218H55.2414L55.0843 10.3944L54.9261 10.372L54.769 10.35L54.6114 10.3052L54.4537 10.2832L54.2966 10.2164L54.1612 10.172L54.0258 10.1052L53.8914 10.0389L53.756 9.95012L53.621 9.8833L53.4861 9.79454L53.3735 9.70578L53.2613 9.59458L53.1486 9.50582L53.036 9.39462L52.946 9.28342L52.8333 9.17272L52.7434 9.03908L52.6757 8.90594L52.5858 8.79524L52.5186 8.6616L52.4509 8.50652L52.4059 8.37288L52.3382 8.23974L52.316 8.08416L52.2705 7.92858L52.2482 7.7735L52.226 7.61792L52.2033 7.46234V7.30676V7.15168L52.226 6.9956L52.2482 6.84052L52.2705 6.68494L52.316 6.52936L52.3382 6.39622L52.4059 6.24064L52.4509 6.1075L52.5186 5.97436L52.5858 5.84072L52.6757 5.70758L52.7434 5.57444L52.8333 5.46324L52.946 5.3296L53.036 5.2189L53.1486 5.1082L53.2613 5.01894L53.3735 4.93018L53.4861 4.81898L53.621 4.73022L53.756 4.6639L53.8914 4.57464L54.0258 4.50832L54.1612 4.4415L54.2966 4.39712L54.4537 4.35274L54.6114 4.30836L54.769 4.26398L54.9261 4.24154L55.0843 4.2196H55.2414L55.4218 4.19766Z" fill="#D40E14"/>
<path fill-rule="evenodd" clip-rule="evenodd" d="M37.1924 16.6241C37.7608 16.6241 37.9013 18.1888 37.9058 18.5439C37.9114 18.9623 37.8331 20.5729 37.1474 20.5729C36.5093 20.5729 36.3658 19.0176 36.3668 18.5578C36.3683 18.0846 36.4502 16.6241 37.1924 16.6241ZM36.9918 22.5545C34.3089 24.3233 29.6448 22.5426 29.3548 18.9757C29.2451 17.6313 29.763 16.2521 30.9135 15.1894C34.08 12.6049 36.9206 14.9147 37.5754 14.5936L37.6426 14.5716L37.6653 14.5277L37.7103 14.4834L37.733 14.4395L37.7553 14.3956L37.7775 14.3293V14.2635L37.8002 14.1971V14.1089L37.8225 14.0206V13.9323V13.5354L37.8002 13.0278V8.35093C37.8002 7.4005 37.8457 6.76372 36.9676 6.18877C37.9023 3.43721 44.2141 3.33648 44.2141 7.15965V16.3069C44.2141 17.2185 44.0706 19.2265 44.5561 20.0408C45.3868 21.4336 44.7779 22.9884 43.0065 23.2422C41.04 23.5234 38.7815 21.3752 36.9918 22.5545Z" fill="white"/>
<path fill-rule="evenodd" clip-rule="evenodd" d="M51.8435 16.6151C52.7707 16.6151 52.9293 17.6024 52.9465 18.315V23.2671L58.6626 23.2222V16.6151C58.1902 13.0771 51.31 13.9503 51.8435 16.6151Z" fill="white"/>
<path fill-rule="evenodd" clip-rule="evenodd" d="M76.7793 15.9823C81.1033 12.2449 81.7531 15.7818 84.5214 15.7818C85.3905 15.7818 86.1999 14.3881 88.6151 14.2809C90.0182 14.2186 91.9033 15.2692 92.0382 17.1142V23.2003H85.8715V19.3482C85.8715 18.2262 85.8589 17.7595 84.8812 17.565C83.9661 17.6383 83.8909 18.5947 83.8909 19.3307V23.2442H77.4316V17.8183C77.4316 17.1586 77.2679 16.4645 76.7793 15.9823Z" fill="white"/>
<path fill-rule="evenodd" clip-rule="evenodd" d="M60.148 15.9823C64.4721 12.2449 65.1219 15.7818 67.8902 15.7818C68.7592 15.7818 69.5687 14.3881 71.9838 14.2809C73.3869 14.2186 75.2721 15.2692 75.407 17.1142V23.2003H69.2402V19.3482C69.2402 18.2262 69.2276 17.7595 68.2499 17.565C67.3349 17.6383 67.2596 18.5947 67.2596 19.3307V23.2442H60.8008V17.8183C60.8003 17.1586 60.6366 16.4645 60.148 15.9823Z" fill="white"/>
<path d="M95.325 10.92C95.0319 10.6537 94.6272 10.4757 94.1992 10.4757C93.7718 10.4757 93.3671 10.6537 93.074 10.92C92.8042 11.2087 92.6238 11.6086 92.6238 12.0305C92.6238 12.4528 92.8042 12.8523 93.074 13.1415C93.3666 13.4078 93.7718 13.5858 94.1992 13.5858C94.6272 13.5858 95.0319 13.4083 95.325 13.1415C95.5948 12.8523 95.7752 12.4528 95.7752 12.0305C95.7752 11.6086 95.5948 11.2087 95.325 10.92ZM94.1992 10.2762C94.6944 10.2762 95.1446 10.4537 95.4599 10.7868C95.7974 11.098 96 11.5423 96 12.0305C96 12.5192 95.7974 12.9635 95.4599 13.2746C95.1446 13.6077 94.6944 13.8077 94.1992 13.8077C93.7046 13.8077 93.2544 13.6077 92.9391 13.2746C92.6016 12.9635 92.4217 12.5192 92.4217 12.0305C92.4217 11.5423 92.6016 11.098 92.9391 10.7868C93.2544 10.4537 93.7046 10.2762 94.1992 10.2762Z" fill="white"/>
<path fill-rule="evenodd" clip-rule="evenodd" d="M93.8466 11.3723V11.9268H94.3635C94.3822 11.9283 94.4034 11.9293 94.4251 11.9283C94.4473 11.9273 94.4706 11.9248 94.4943 11.9203C94.5256 11.9153 94.557 11.9078 94.5873 11.8973C94.6171 11.8864 94.6429 11.8704 94.6636 11.8505C94.6904 11.824 94.7116 11.7936 94.7267 11.7597C94.7414 11.7253 94.7495 11.6894 94.7495 11.652C94.7495 11.5982 94.7369 11.5508 94.7111 11.5099C94.6858 11.4695 94.6545 11.4396 94.6181 11.4201C94.5833 11.4012 94.5464 11.3887 94.5085 11.3817C94.4706 11.3758 94.4291 11.3723 94.3847 11.3723H93.8466ZM93.6207 12.8697V11.1868H94.3751C94.4221 11.1883 94.4691 11.1903 94.5145 11.1928C94.56 11.1952 94.6045 11.2017 94.6489 11.2127C94.6601 11.2162 94.6712 11.2187 94.6823 11.2222C94.6934 11.2252 94.7045 11.2292 94.7156 11.2341C94.803 11.2671 94.8692 11.3229 94.9147 11.4017C94.9597 11.4805 94.9824 11.5642 94.9824 11.652C94.9824 11.7861 94.939 11.8909 94.8526 11.9652C94.7662 12.0395 94.6494 12.0863 94.5039 12.1048V12.1073C94.5464 12.1292 94.5944 12.1601 94.6464 12.201C94.699 12.2419 94.7586 12.3132 94.8248 12.4144L95.1224 12.8697H94.8394L94.6156 12.5217C94.5428 12.411 94.4822 12.3272 94.4332 12.2728C94.3852 12.2175 94.3397 12.1801 94.2968 12.1596C94.268 12.1457 94.2387 12.1367 94.2089 12.1342C94.1785 12.1307 94.1442 12.1292 94.1063 12.1292H93.8471V12.8697H93.6207Z" fill="white"/>
<path fill-rule="evenodd" clip-rule="evenodd" d="M31.6633 27.1955H92.0377V28.3738C86.6683 28.3738 32.3732 28.3589 32.3636 28.3514C31.9256 28.0148 31.7689 27.6119 31.6563 27.202C31.6557 27.199 31.6593 27.1955 31.6633 27.1955Z" fill="#E3000F"/>
<path fill-rule="evenodd" clip-rule="evenodd" d="M31.6633 27.1955H92.0377V28.3738C86.6683 28.3738 32.3732 28.3589 32.3636 28.3514C31.9256 28.0148 31.7689 27.6119 31.6563 27.202C31.6557 27.199 31.6593 27.1955 31.6633 27.1955Z" fill="#E3000F"/>
</g>
<defs>
<clipPath id="clip0_1_633">
<rect width="96" height="37" fill="white"/>
</clipPath>
</defs>
</svg>
