<?xml version="1.0" encoding="utf-8"?>
<!-- Generator: Adobe Illustrator 19.2.1, SVG Export Plug-In . SVG Version: 6.00 Build 0)  -->
<svg version="1.1" id="layer" xmlns="http://www.w3.org/2000/svg" xmlns:xlink="http://www.w3.org/1999/xlink" x="0px" y="0px"
	 viewBox="0 0 652 652" style="enable-background:new 0 0 652 652;" xml:space="preserve">
<style type="text/css">
	.st0{fill:#EE3135;}
</style>
<path class="st0" d="M37.8,441.9v8.1H55v10.1H37.8v17.9H26.4v-46.3h31.5v10.1H37.8z M102.7,478.1h11.4v-46.3h-11.4V478.1z
	 M195.6,474.4c2.7-2.4,4-5.7,4-10c0-1.5-0.2-2.9-0.6-4c-0.4-1.2-0.9-2.1-1.4-2.9c-0.6-0.8-1.2-1.4-1.8-1.9c-0.6-0.5-1.2-0.9-1.9-1.3
	c1.2-0.8,2.4-2,3.4-3.5c1.1-1.5,1.6-3.4,1.6-5.7c0-4.1-1.3-7.3-3.8-9.8c-2.6-2.4-6.2-3.6-10.9-3.6H165v46.3h20.2
	C189.4,478.1,192.9,476.9,195.6,474.4 M186.6,443.1c0.6,0.7,1,1.6,1,2.7s-0.3,1.9-1,2.7c-0.7,0.7-1.7,1.1-3.1,1.1h-7.1V442h7.1
	C184.9,442,185.9,442.3,186.6,443.1 M187.2,460.9c0.7,0.8,1,1.7,1,2.9c0,1.1-0.3,2.1-1,2.9c-0.7,0.8-1.7,1.2-3.2,1.2h-7.7v-8.1h7.7
	C185.5,459.7,186.5,460.1,187.2,460.9 M282.4,478.1v-10.1h-20.1v-8.1h17.2v-10.1h-17.2v-7.7h20.1v-10.1h-31.5v46.3H282.4z
	 M370.9,478.1l-10-19.3c2.1-1,3.9-2.6,5.4-4.6c1.4-2.1,2.2-4.5,2.2-7.4c0-1.9-0.4-3.8-1.1-5.6c-0.7-1.8-1.7-3.4-3-4.8
	c-1.3-1.4-3-2.5-5-3.3c-2-0.8-4.2-1.2-6.7-1.2h-18.3v46.3h11.4v-17.2h3.9l8.2,17.2H370.9z M355.7,443.4c0.9,0.9,1.3,2,1.3,3.3
	c0,1.3-0.4,2.4-1.3,3.3c-0.9,0.9-2.1,1.4-3.6,1.4h-6.4V442h6.4C353.6,442,354.8,442.5,355.7,443.4 M457,478.1v-46.3h-11.4V455
	l-14.9-23.3h-9.9v46.3h11.4v-23.3l14.8,23.3H457z M541.4,478.1v-10.1h-20.1v-8.1h17.2v-10.1h-17.2v-7.7h20.1v-10.1h-31.5v46.3H541.4
	z M625.3,441.9v-10.1h-34.1v10.1h11.4v36.2h11.4v-36.2H625.3z M626.4,178.7H435.1v44.1h73.6v162.6h44.1V222.9h73.6V178.7z
	 M334.7,344.8c-33.6,0-60.8-27.2-60.8-60.8c0-33.6,27.2-60.8,60.8-60.8c25.4,0,47.1,15.6,56.2,37.7h46.6
	c-10.5-47.1-52.5-82.3-102.8-82.3c-58.2,0-105.4,47.2-105.4,105.3s47.2,105.3,105.4,105.3c50.2,0,92.3-35.2,102.8-82.3h-46.6
	C381.8,329.3,360.1,344.8,334.7,344.8 M114.2,315.2l20.4-40.7l20.4,40.7L134.6,327l107.6,62.4L134.6,174.1L26.9,389.4L134.6,327
	L114.2,315.2z"/>
</svg>
