<svg width="228" height="77" viewBox="0 0 228 77" fill="none" xmlns="http://www.w3.org/2000/svg">
<g clip-path="url(#clip0_1_1577)">
<path fill-rule="evenodd" clip-rule="evenodd" d="M31.124 0.0889484C27.625 0.435948 26.21 1.45595 24.475 4.88195C24.197 5.42995 23.582 6.55195 23.109 7.37495C22.6372 8.19502 22.1858 9.0266 21.755 9.86895C21.483 10.4179 20.7 11.8989 20.015 13.1619C18.393 16.1469 18.497 17.1479 20.483 17.7179C21.176 17.9169 21.295 17.8699 21.608 17.2709C22.95 14.7109 27.738 12.6209 29.908 13.6499C30.869 14.1069 30.939 14.5929 30.231 15.9139C29.957 16.4259 29.732 16.9989 29.732 17.1879C29.732 17.3769 29.514 17.9399 29.247 18.4379C28.707 19.4469 27.627 22.0519 27.112 23.5849C26.8714 24.2644 26.5868 24.9275 26.26 25.5699C25.975 26.1139 25.742 26.7099 25.742 26.8949C25.742 27.0799 25.477 27.8139 25.154 28.5249C24.7901 29.3352 24.4522 30.157 24.141 30.9889C23.199 33.5869 22.872 33.8289 19.258 34.5929C15.402 35.4079 12.619 37.7719 10.804 41.7749C9.95101 43.6569 9.95401 43.6479 10.245 44.1089C10.481 44.4809 11.517 44.1379 12.4 43.3939C12.93 42.9489 15.53 42.0459 17.055 41.7779C19.107 41.4169 19.512 42.2969 18.408 44.7139C18.078 45.4369 17.445 46.8699 17.003 47.8989C15.863 50.5539 16.001 50.4689 12.414 50.6589C3.45401 51.1359 -1.51599 58.5919 0.412011 68.6669C0.608011 69.6889 1.00001 70.9599 1.28501 71.4899C1.56901 72.0199 1.80201 72.5419 1.80201 72.6489C1.80201 73.1389 3.92801 75.8839 4.56301 76.2119C5.79601 76.8499 6.16601 75.6369 5.25101 73.9549C0.418011 65.0699 7.83401 56.8649 17.014 60.9439C17.768 61.2789 18.554 61.6239 18.76 61.7129C19.111 61.8619 19.834 62.3259 22.155 63.8869C22.688 64.2459 23.593 64.9949 24.166 65.5529C26.744 68.062 26.316 68.2929 33.824 60.3509C37.566 56.3939 37.554 55.1809 33.785 56.4969L32.007 57.1189L30.433 56.3729C29.567 55.9619 28.41 55.2869 27.863 54.8709C27.2106 54.3829 26.545 53.9127 25.867 53.4609C24.083 52.2879 23.861 51.0299 24.987 48.4839C25.3148 47.6986 25.5999 46.8961 25.841 46.0799C26.403 44.146 27.503 42.9959 28.294 43.5139C30.382 44.8819 37.658 45.7219 44.776 45.4179C48.686 45.2499 48.7 45.2609 49.928 49.6449C50.178 50.5349 50.562 51.7989 50.78 52.4499C51.82 55.5399 52.002 56.1099 52.438 57.6249C53.038 59.7019 53.833 62.1499 54.424 63.7339C54.68 64.4199 55.011 65.4529 55.16 66.0299C55.443 67.1239 56.498 68.5969 57 68.5969C57.16 68.5969 60.913 64.9719 65.341 60.5409C74.161 51.7149 74.294 51.5329 72.701 50.5859L71.902 50.1119L70.62 51.1249C69.193 52.2529 68.986 52.3069 68.193 51.7509C67.653 51.3709 66.254 48.6369 65.633 46.7379C65.459 46.2109 65.179 45.5549 65.009 45.2809C64.839 45.0059 64.561 44.3329 64.392 43.7839C64.222 43.2359 63.944 42.6189 63.775 42.4129C63.605 42.2069 63.291 41.5329 63.075 40.9169C62.515 39.3129 61.438 36.6599 61.05 35.9289C60.868 35.5859 60.575 34.8589 60.4 34.3139C60.224 33.7689 59.873 32.9829 59.62 32.5679C59.367 32.1539 59.16 31.6459 59.16 31.4399C59.157 31.2339 58.821 30.3929 58.41 29.5699C58 28.7469 57.664 27.9329 57.663 27.7619C57.663 27.5909 57.396 26.917 57.07 26.2659C56.744 25.6139 56.19 24.4639 55.84 23.7099C53.781 19.2879 50.98 13.8419 49.985 12.3339C49.613 11.7689 48.983 10.8139 48.585 10.2139C43.575 2.63395 38.005 -0.593052 31.124 0.0889484ZM209.782 6.11895C209.439 6.30895 206.914 8.79395 204.172 11.6389C201.428 14.4849 198.875 17.0929 198.498 17.4349C196.499 19.2469 198.586 21.1319 200.853 19.5609C202.829 18.1909 205.147 18.4279 205.84 20.0709C206.248 21.0369 206.143 59.1689 205.73 59.9939C205.592 60.2679 205.157 60.7939 204.763 61.1639C203.818 62.0499 203.833 62.1009 205.356 63.3379C207.184 64.8219 210.368 67.7109 212.013 69.3779C214.088 71.4829 214.071 71.4839 217.113 68.9229C219.706 66.7399 221.043 65.6819 223.719 63.6919C227.581 60.8199 227.547 60.8539 227.383 60.0319C227.203 59.1339 226.804 58.8109 226.116 59.0089C224.36 59.5149 223.637 59.4309 222.874 58.6279L222.126 57.8419L222.001 35.9749C221.928 23.1479 221.781 13.9019 221.643 13.6099C219.545 9.14395 212.433 4.65195 209.783 6.11995M38.88 19.7199L39.565 21.0899C39.77 21.5029 40.113 22.2319 40.326 22.7119C40.539 23.1919 40.932 24.0339 41.199 24.5819C41.9396 26.1298 42.608 27.7111 43.202 29.3209C43.453 30.0059 44.014 31.5209 44.449 32.6869C45.504 35.5139 45.519 35.9539 44.57 36.2219C42.512 36.8019 32.84 35.4499 31.568 34.4019C31.256 34.1459 31.451 32.8989 31.934 32.0619C32.091 31.7889 32.456 30.9479 32.745 30.1919C33.033 29.4389 33.54 28.1199 33.87 27.2619C34.2 26.4059 34.732 25.0019 35.051 24.1459C35.371 23.2889 35.806 22.2509 36.019 21.8389C36.2686 21.3215 36.4598 20.7778 36.589 20.2179C36.846 18.9999 36.912 18.9339 37.79 19.0199C38.327 19.0719 38.666 19.2899 38.88 19.7199ZM104.67 27.7419C103.71 28.1679 102.623 28.7539 102.256 29.0419C101.888 29.3319 101.182 29.8499 100.688 30.1919C100.194 30.5359 98.903 31.5259 97.819 32.3919C95.356 34.3639 94.763 34.3979 93.807 32.6259C92.472 30.1499 90.109 28.4749 87.089 27.8629C84.377 27.313 83.802 27.4859 81.013 29.6949L77.866 32.1879C76.916 32.9429 75.627 33.9519 75.004 34.4319C72.715 36.1939 73.496 37.5419 76.658 37.2869C80.015 37.0159 80.332 37.6929 80.338 45.1559C80.345 55.4759 79.978 57.5809 77.978 58.7099C76.43 59.5829 76.488 59.6829 80.712 63.4849C81.932 64.5819 83.164 65.713 83.45 65.9969C87.447 69.964 87.93 70.1009 90.221 67.9169C91.6159 66.598 93.0182 65.2869 94.428 63.9839C99.185 59.5829 99.059 59.7209 99.059 58.9059C99.059 57.9529 98.723 57.7459 97.797 58.1299C96.86 58.5179 95.754 58.1069 95.35 57.2219C95.158 56.8009 95.07 53.8559 95.07 47.9719V39.3419L95.721 38.4869C97.544 36.0969 101.144 36.2269 102.147 38.7189C102.948 40.709 103.133 44.2369 102.812 51.3739C102.49 58.5319 102.406 58.9269 100.959 60.1539L100.181 60.8129L101.428 62.0289C102.541 63.1159 103.673 64.1019 106.106 66.1039C106.522 66.4459 107.05 66.8939 107.279 67.1009C110.822 70.2929 110.899 70.2949 114.139 67.2259C114.427 66.9509 115.772 65.7729 117.125 64.6059C123.167 59.4039 123.842 58.1179 120.586 58.0079C118.118 57.9249 117.953 57.2159 118.059 47.1509L118.136 39.7939L118.822 38.7399C120.039 36.8679 121.822 36.2949 123.789 37.1439C126.389 38.2659 126.479 38.6859 126.33 49.0209C126.191 58.7549 126.077 59.6209 124.847 60.3479C123.57 61.1009 123.692 61.8329 125.307 63.0969C127.188 64.5729 128.217 65.3919 129.089 66.1129C129.511 66.4619 130.102 66.91 130.401 67.1109C130.701 67.3109 131.747 68.1399 132.726 68.9509C134.954 70.7999 134.363 71.1109 140.948 64.6379C145.893 59.7769 146.008 59.6409 145.848 58.8369C145.602 57.6069 145.308 57.4469 144.458 58.0749C143.524 58.7649 142.312 58.7969 141.96 58.1399C141.795 57.8299 141.697 53.8729 141.687 47.1049L141.672 36.5519L140.876 34.6309C139.029 30.1659 135.944 28.1279 131.099 28.1689C128.906 28.1869 127.929 28.3939 125.369 29.3819C123.583 30.0709 121.083 31.8319 119.38 33.5979C118.108 34.9179 117.332 34.8539 116.278 33.3419C114.834 31.2709 111.693 28.5999 109.499 27.5789C107.755 26.7669 106.791 26.7989 104.67 27.7419ZM159.031 28.4389C158.619 28.5119 157.972 28.7969 157.595 29.0709C155.905 30.3013 154.223 31.5433 152.55 32.7969C151.063 33.9549 148.472 35.8669 147.874 36.2499C147.144 36.7179 146.952 37.7629 147.434 38.6619C147.767 39.2879 149.15 39.7579 149.587 39.3949C150.157 38.9229 151.677 38.6979 152.457 38.9699C153.888 39.4689 153.922 39.7259 153.922 50.0379V59.4349L153.034 60.4169C152.008 61.5529 151.986 62.2619 152.958 62.8429C153.588 63.2189 155.438 64.477 159.782 67.4799C160.652 68.0828 161.525 68.6818 162.4 69.2769C162.743 69.5059 163.225 69.8959 163.47 70.1429C164.046 70.7229 165.231 70.7169 166.09 70.1299C168.02 68.8069 174.268 64.6649 174.995 64.2249C175.456 63.9449 176.046 63.5249 176.306 63.2899C177.257 62.4289 178.473 62.7249 179.923 64.1699C181.523 65.7659 183.738 67.715 185.097 68.7219C185.677 69.1514 186.252 69.5878 186.821 70.0309C187.214 70.3399 187.737 70.591 187.985 70.591C188.695 70.591 199.308 59.8909 199.308 59.1739C199.308 57.6689 198.502 57.2819 197.12 58.1239C193.705 60.2059 192.95 58.0129 192.95 46.0289C192.95 36.3539 192.864 35.6489 191.446 33.5649C189.506 30.7109 186.977 29.3639 183.516 29.3379L181.218 29.3209L178.71 31.4399C177.572 32.4053 176.426 33.3614 175.273 34.3079C174.695 34.7755 174.125 35.2536 173.564 35.7419C173.135 36.1189 172.694 36.4279 172.581 36.4279C171.885 36.4279 171.734 38.0429 172.344 38.9729C173.064 40.0719 173.084 40.0769 174.371 39.4199C176.142 38.5159 177.244 38.7429 178.014 40.1679C178.691 41.4219 178.735 55.9739 178.067 57.3749C176.47 60.7199 171.875 61.8519 169.471 59.4929C168.201 58.2469 168.139 57.6449 168.139 46.5269V36.3029L167.477 34.4849C166.217 31.0209 161.897 27.9289 159.031 28.4389Z" fill="#ED1C24"/>
</g>
<defs>
<clipPath id="clip0_1_1577">
<rect width="227.437" height="76.385" fill="white"/>
</clipPath>
</defs>
</svg>
