<svg width="142" height="42" viewBox="0 0 142 42" fill="none" xmlns="http://www.w3.org/2000/svg">
<g clip-path="url(#clip0_1_1583)">
<path fill-rule="evenodd" clip-rule="evenodd" d="M6.73288 34.0965H33.7482V7.00049H6.73288V34.0965Z" fill="white"/>
<path fill-rule="evenodd" clip-rule="evenodd" d="M32.8658 33.2459L23.0626 25.0004C23.0626 25.0004 21.7346 23.6999 20.245 23.6999C18.7405 23.6999 17.4125 25.0004 17.4125 25.0004L7.61226 33.2459L7.58085 33.2174L15.8033 23.3849C15.8033 23.3849 17.0969 22.0574 17.0969 20.5454C17.0969 19.0484 15.8033 17.7194 15.8033 17.7194L7.58085 7.87945L7.61226 7.84495L17.4125 16.0994C17.4125 16.0994 18.7405 17.4029 20.245 17.4029C21.7346 17.4029 23.0626 16.0994 23.0626 16.0994L32.8658 7.84495L32.9062 7.88844L24.6673 17.7194C24.6673 17.7194 23.3826 19.0484 23.3826 20.5454C23.3826 22.0574 24.6673 23.3849 24.6673 23.3849L32.9062 33.2144L32.8658 33.2459ZM37.4526 20.5454V20.5424C37.4526 17.8769 37.5603 15.4874 39.5314 11.2904C40.1012 10.0694 41.3619 8.29045 39.5045 6.21445C37.9955 4.70545 36.2816 4.95295 35.1271 5.62045C35.7911 4.46245 36.0378 2.73595 34.5303 1.22095C32.462 -0.636054 30.6823 0.625446 29.471 1.19995C25.282 3.18145 22.9116 3.29095 20.245 3.29095C17.568 3.29095 15.1946 3.18145 11.0146 1.19995C9.79723 0.625446 8.01007 -0.636054 5.94773 1.22095C4.44024 2.73595 4.69448 4.46245 5.35849 5.62045C4.20095 4.94995 2.48408 4.70545 0.973593 6.21445C-0.882362 8.29045 0.384354 10.0694 0.943683 11.2904C2.92676 15.4874 3.03593 17.8769 3.03593 20.5454C3.03593 23.2214 2.92676 25.6169 0.943683 29.8109C0.384354 31.0229 -0.882362 32.8139 0.973593 34.8884C2.48408 36.3929 4.20095 36.1439 5.35849 35.4839C4.69448 36.6449 4.44024 38.3669 5.94773 39.8669C8.01007 41.7374 9.79723 40.4729 11.0146 39.8984C15.1976 37.9184 17.568 37.8134 20.245 37.8134C22.9116 37.8134 25.282 37.9184 29.4695 39.8984C30.6823 40.4729 32.462 41.7374 34.5303 39.8669C36.0378 38.3669 35.7851 36.6449 35.1241 35.4839C36.2816 36.1439 37.9955 36.4019 39.5045 34.8884C41.3619 32.8139 40.1012 31.0229 39.5314 29.8109C37.5603 25.6109 37.4526 23.2214 37.4526 20.5454Z" fill="#FF3333"/>
<path fill-rule="evenodd" clip-rule="evenodd" d="M69.4361 36.2789C72.7965 35.0714 76.9556 29.3204 76.2662 20.2634C75.6021 11.5019 72.2716 4.61844 63.4031 3.97194C63.4031 3.97194 61.7236 3.85044 60.3163 3.84444C58.8073 3.83394 58.4843 3.78294 58.3721 5.39994C58.1792 8.42544 58.1239 31.9889 58.3168 35.3894C58.3392 35.8559 58.3901 36.9749 60.3253 37.1714C63.8637 37.5149 66.7905 37.2389 69.4361 36.2789ZM66.0053 2.47944C73.5099 2.44494 83.3849 7.60494 83.346 20.4959C83.3206 31.7084 75.2477 38.6144 67.7925 38.6144L48.8605 38.6189L48.8845 38.2184C49.9493 38.0279 51.1457 37.3619 51.3446 36.6509C51.9712 33.9494 51.8292 9.23244 51.4493 5.16144C51.3297 3.88794 50.3276 3.06744 49.1118 2.86644L49.0744 2.47944C49.0744 2.47944 64.3243 2.48844 66.0053 2.47944ZM107.514 29.7569C107.663 21.9914 101.988 19.9319 96.1104 19.6094C95.9877 19.6004 96.0341 19.3094 96.1253 19.2944C98.0351 19.2179 105.628 18.3359 105.32 11.0609C105.012 3.97194 99.6503 3.81294 97.6897 3.78294C96.0894 3.76194 95.741 3.76194 95.065 3.79494C93.9269 3.84444 93.6427 3.92844 93.6487 5.16744C93.6487 5.32494 93.399 17.9384 93.2494 26.8064C93.1791 31.6259 93.1597 35.3369 93.1597 35.3369C93.1881 36.2204 93.0789 37.1159 95.2474 37.2179C97.4863 37.3274 100.373 37.4204 102.393 36.9899C104.243 36.5939 107.388 35.2349 107.514 29.7569ZM105.191 19.3169C114.019 21.5114 114.552 27.9029 114.429 29.6999C114.025 37.7024 107.26 38.6189 104.535 38.6189H83.7079L83.7318 38.2154C85.2453 38.0069 86.3804 37.1759 86.3804 34.5089L86.5031 6.94944C86.5375 3.96144 85.7538 3.04794 84.1042 2.85294L84.0668 2.47944H99.8148C102.706 2.47944 111.411 1.90344 112.153 9.92994C112.742 16.3529 105.706 19.0364 105.191 19.3169ZM139.15 2.58894L139.508 2.58594L139.63 9.02544L139.237 9.02244C138.604 6.40044 136.092 3.92844 131.053 3.67044C125.103 3.35694 122.53 6.91344 122.492 10.2794C122.457 14.7524 125.937 15.6764 131.092 16.9379C133.521 17.5334 142.521 18.7109 141.8 28.8539C141.301 35.9384 135.202 39.3074 126.567 39.0404C126.567 39.0404 122.979 38.9204 117.968 37.5269C117.04 37.2629 116.794 37.5764 116.421 38.2619L116.011 38.2829L116.025 31.3394L116.421 31.3589C116.619 32.0624 116.674 33.3719 117.945 34.4819C118.871 35.3009 121.047 37.3229 125.819 37.3754C130.503 37.4384 134.386 35.4554 134.906 30.1844C135.048 28.7669 134.898 25.5224 131.74 24.0434C129.269 22.8854 122.409 22.1219 119.085 19.1984C119.085 19.1984 115.141 16.4429 115.763 11.2994C116.637 4.03044 122.686 2.21244 128.121 2.10144C128.121 2.10144 132.983 2.05344 136.856 3.05694C136.856 3.05694 137.804 3.31494 138.589 3.01494C138.908 2.90844 139.058 2.70894 139.15 2.58894Z" fill="black"/>
</g>
<defs>
<clipPath id="clip0_1_1583">
<rect width="142" height="42" fill="white"/>
</clipPath>
</defs>
</svg>
