<svg width="207" height="28" viewBox="0 0 207 28" fill="none" xmlns="http://www.w3.org/2000/svg">
<path d="M30.774 22.6173H27.6981L26.4991 26.8149H41.4092L42.5561 22.6173H38.9589L42.5561 8.64201H45.0064L44.7979 10.963H49.9591L52.0444 3.60497H27.2289L25.1957 10.963H30.5655L31.6603 8.59263H34.3191L30.774 22.6173ZM69.6655 3.60497H81.1869L65.8076 26.8149H56.1629L54.8075 7.80251H52.8264L53.9733 3.60497H66.746L65.5991 7.80251H63.4095L63.3573 19.7037L70.7081 7.80251H68.2579L69.6655 3.60497ZM99.2251 10.4692C99.2251 8.14818 100.007 6.07411 100.998 3.95065C96.6705 3.20991 91.9785 2.91362 87.7036 3.95065C85.3055 4.54325 82.8031 5.97535 81.4476 8.00004C79.8836 10.2716 80.2485 13.1852 82.1775 15.1111C83.168 16.0494 84.3671 16.6914 85.6183 17.2346C86.6088 17.679 88.3292 18.3704 88.5899 19.4568C89.3197 22.2223 84.6277 22.4692 82.8031 21.926V19.7531H77.9025L76.0257 26.2223C80.4049 27.2593 84.9927 27.605 89.424 26.6667C92.0828 26.0741 94.4809 24.7902 96.2535 22.7655C97.7132 21.0371 98.5473 17.8272 96.9833 15.9507C96.0971 14.9136 95.1065 14.1235 93.9075 13.4815C92.7605 12.8395 91.5093 12.4445 90.4667 11.7037C89.2155 10.8149 89.2155 9.43214 90.5709 8.64201C91.6136 8.00004 93.334 8.29633 94.4809 8.49386L94.6895 10.4198H99.2251V10.4692Z" fill="#253C80"/>
<path d="M166.477 3.55559C164.444 2.81485 162.515 2.86423 160.43 3.35806C158.396 3.85189 156.937 4.93831 155.321 6.12349C153.704 7.30868 151.984 8.49386 150.107 9.28399C148.178 10.0741 145.989 10.9136 143.903 10.1235C145.415 10.1729 146.823 9.87658 148.126 9.08646C149.117 8.49387 150.837 7.2593 151.202 6.12349H149.482C150.733 4.83954 152.297 3.85189 154.017 3.2593L153.183 2.32103C155.477 0.839544 157.979 0.148186 160.742 0.0494204C162.046 3.7685e-05 163.349 0.148186 164.548 0.493865C165.851 0.839544 166.842 1.43214 167.78 2.32103L166.477 3.55559ZM133.477 8.74078C132.747 8.74078 132.121 8.79016 131.391 8.98769C130.714 9.18522 130.088 9.43213 129.41 9.67905C128.159 10.1729 126.96 10.8149 125.761 11.4074C125.24 11.6544 124.614 11.9507 124.041 12.0494C123.415 12.1482 122.581 12.1482 122.007 11.9013C121.382 11.605 120.86 11.3087 120.339 10.8642C119.818 10.4198 119.296 9.97535 118.775 9.62967C118.202 9.28399 117.628 9.03707 117.055 8.69139C117.315 8.69139 118.671 8.64201 118.306 8.0988C117.993 7.65436 117.263 7.45683 116.69 7.35806C115.386 7.11115 114.083 7.11115 112.78 7.11115C113.875 6.22226 115.074 5.77782 116.533 5.77782C117.889 5.77782 118.984 6.37041 120.131 7.01238C120.704 7.35806 121.382 7.95065 121.955 8.29633C122.529 8.64201 123.154 8.83954 123.78 9.03707C124.979 9.43213 126.491 9.2346 127.69 8.83954C128.68 8.49387 129.567 8.0988 130.661 8.0988C131.652 7.95065 132.59 8.19757 133.477 8.74078Z" fill="#DC4226"/>
<path d="M123.259 18.6667C125.396 18.5679 127.169 16.5926 128.368 15.1111C129.671 13.5309 130.557 11.1605 132.59 10.2716C135.614 8.98766 138.794 10.0741 141.557 11.4568C144.164 12.6914 147.813 12.4938 150.42 11.4074C153.287 10.2222 155.477 8.19754 157.927 6.46914C160.221 4.83951 163.193 3.70371 166.738 4.5926L168.302 2.81482L168.615 5.7284L174.141 11.0123L173.046 12.2469H169.501V11.4074C168.458 10.7161 167.363 10.2222 166.06 10.3704C164.705 10.5185 163.245 11.1111 163.453 12.642C163.61 13.679 165.174 14.6173 165.956 15.1605C167.051 15.8519 168.197 16.4938 169.344 17.1852C171.69 18.5679 173.932 20.0988 176.122 21.7284C178.155 23.2593 180.24 24.8395 181.804 26.7654L177.008 25.8765C177.894 25.284 176.852 24.642 176.278 24.1975C175.548 23.6543 174.818 23.2099 173.984 22.7654C172.368 21.9259 170.648 21.4815 168.875 21.0864C165.487 20.2963 161.107 19.8025 158.136 21.8272C158.031 21.8765 157.927 21.9753 157.823 22.0247L156.155 20.6914C150.785 22.4198 144.79 21.9753 139.837 19.4074C137.804 20.7407 135.458 21.037 133.112 21.284C130.87 21.5309 128.524 21.3827 126.23 21.1852C120.756 25.4815 113.301 28 106.315 25.7284L111.007 24.5926V25.5803C116.064 25.5803 120.287 22.2222 123.259 18.6667Z" fill="#DC4226"/>
</svg>
